<?xml version="1.0" encoding="utf-8"?>
<!-- Generator: Adobe Illustrator 18.0.0, SVG Export Plug-In . SVG Version: 6.00 Build 0)  -->
<!DOCTYPE svg PUBLIC "-//W3C//DTD SVG 1.1//EN" "http://www.w3.org/Graphics/SVG/1.1/DTD/svg11.dtd">
<svg version="1.1" id="Layer_1" xmlns="http://www.w3.org/2000/svg" xmlns:xlink="http://www.w3.org/1999/xlink" x="0px" y="0px"
	 viewBox="76.7 2 240 155.3" enable-background="new 76.7 2 240 155.3" xml:space="preserve">
<image overflow="visible" enable-background="new    " width="1428" height="1034" xlink:href="../../Desktop/Screen Shot 2017-02-06 at 21.48.10.png"  transform="matrix(0.4627 0 0 0.4627 758.9913 105.3091)">
</image>
<text transform="matrix(4.489659e-11 -1 1 4.489659e-11 91.3941 88.8721)" font-family="'HelveticaNeue-Light'" font-size="8">Awesomeness</text>
<text transform="matrix(1 0 0 1 159.3945 42.4953)" font-family="'HelveticaNeue-Light'" font-size="8">Major break through</text>
<text transform="matrix(1 0 0 1 173.3943 113.5394)" font-family="'HelveticaNeue-Light'" font-size="8">Time (5-days)</text>
<text transform="matrix(1 0 0 1 148.947 129.8732)" fill="#0FCDC0" font-family="'HelveticaNeue-Light'" font-size="8">ASYM deliverables (asymetric)</text>
<text transform="matrix(1 0 0 1 148.947 146.5399)" fill="#EE4C66" font-family="'HelveticaNeue-Light'" font-size="8">EOD deliverables (end of day)</text>
<g>
	<g>
		<g>
			<polygon fill="#202020" points="98.9,99.6 298.7,99.6 298.7,102 303.3,99.3 298.7,96.7 298.7,99 98.9,99 			"/>
		</g>
	</g>
</g>
<g>
	<g>
		<g>
			<polygon fill="#202020" points="99.3,100.8 99.3,22.9 101.6,22.9 98.9,18.3 96.3,22.9 98.6,22.9 98.6,100.8 			"/>
		</g>
	</g>
</g>
<path fill="none" stroke="#ED4B68" stroke-miterlimit="10" d="M98.9,98.9c11.1,0,11.1-16,22.2-16c11.1,0,11.1,16,22.2,16
	c11.1,0,11.1-16,22.2-16c11.1,0,11.1,16,22.2,16c11.1,0,11.1-16,22.2-16c11.1,0,11.1,16,22.2,16c11.1,0,11.1-16,22.2-16
	c11.1,0,11.1,16,22.2,16c11.1,0,11.1-16,22.2-16"/>
<path fill="none" stroke="#12CDC5" stroke-miterlimit="10" d="M98.9,99.8c11.1,0,11.2-4.5,22.3-4.5c11.1,0,11,4.5,22.1,4.5
	c11.1,0,11.1-23.8,22.2-23.8c11.1,0,11.1,23.8,22.2,23.8c11.1,0,11.1-6,22.2-6c11.1,0,11.1,6,22.2,6c11.1,0,11.1-57.3,22.2-57.3
	c11.1,0,11.1,57.3,22.2,57.3c11.1,0,11.1-8.7,22.2-8.7"/>
<g>
	<g>
		<line fill="none" stroke="#EA9C26" stroke-miterlimit="10" x1="298.8" y1="42.5" x2="297.8" y2="42.5"/>
		
			<line fill="none" stroke="#EA9C26" stroke-miterlimit="10" stroke-dasharray="1.9986,1.9986" x1="295.8" y1="42.5" x2="100.9" y2="42.5"/>
		<line fill="none" stroke="#EA9C26" stroke-miterlimit="10" x1="99.9" y1="42.5" x2="98.9" y2="42.5"/>
	</g>
</g>
</svg>
