<?xml version="1.0" encoding="utf-8"?>
<!-- Generator: Adobe Illustrator 18.0.0, SVG Export Plug-In . SVG Version: 6.00 Build 0)  -->
<!DOCTYPE svg PUBLIC "-//W3C//DTD SVG 1.1//EN" "http://www.w3.org/Graphics/SVG/1.1/DTD/svg11.dtd">
<svg version="1.1" id="Layer_1" xmlns="http://www.w3.org/2000/svg" xmlns:xlink="http://www.w3.org/1999/xlink" x="0px" y="0px"
	 viewBox="0 0 862.9 600" enable-background="new 0 0 862.9 600" xml:space="preserve">
<linearGradient id="SVGID_1_" gradientUnits="userSpaceOnUse" x1="425.436" y1="184.5568" x2="425.436" y2="232.8841">
	<stop  offset="0" style="stop-color:#54A7F5"/>
	<stop  offset="1" style="stop-color:#156BC1"/>
</linearGradient>
<path fill="url(#SVGID_1_)" d="M482.1,232.9H368.8c-2.8,0-5-2.2-5-5v-38.3c0-2.8,2.2-5,5-5h113.4c2.8,0,5,2.2,5,5v38.3
	C487.1,230.6,484.9,232.9,482.1,232.9z"/>
<linearGradient id="SVGID_2_" gradientUnits="userSpaceOnUse" x1="424.5768" y1="279.5495" x2="424.5768" y2="327.8769">
	<stop  offset="0" style="stop-color:#F08D2D"/>
	<stop  offset="1" style="stop-color:#DD6C24"/>
</linearGradient>
<path fill="url(#SVGID_2_)" d="M481.3,327.9H367.9c-2.8,0-5-2.2-5-5v-38.3c0-2.8,2.2-5,5-5h113.4c2.8,0,5,2.2,5,5v38.3
	C486.3,325.6,484,327.9,481.3,327.9z"/>
<linearGradient id="SVGID_3_" gradientUnits="userSpaceOnUse" x1="570.5521" y1="383.397" x2="570.5521" y2="431.7243">
	<stop  offset="0" style="stop-color:#3CBEEE"/>
	<stop  offset="1" style="stop-color:#0093D4"/>
</linearGradient>
<path fill="url(#SVGID_3_)" d="M627.2,431.7H513.9c-2.8,0-5-2.2-5-5v-38.3c0-2.8,2.2-5,5-5h113.4c2.8,0,5,2.2,5,5v38.3
	C632.2,429.5,630,431.7,627.2,431.7z"/>
<text transform="matrix(1 0 0 1 397.0016 212.762)" fill="#FFFFFF" font-family="'HelveticaNeue-Light'" font-size="17">Element</text>
<text transform="matrix(1 0 0 1 408.835 308.6094)" fill="#FFFFFF" font-family="'HelveticaNeue-Light'" font-size="17">Skin</text>
<text transform="matrix(1 0 0 1 505.2015 310.3188)" fill="#FFFFFF" font-family="'HelveticaNeue-Light'" font-size="17">Style</text>
<linearGradient id="SVGID_4_" gradientUnits="userSpaceOnUse" x1="567.3" y1="484.2849" x2="567.3" y2="532.6122">
	<stop  offset="0" style="stop-color:#6DBB48"/>
	<stop  offset="1" style="stop-color:#168A32"/>
</linearGradient>
<path fill="url(#SVGID_4_)" d="M624,532.6H510.6c-2.8,0-5-2.2-5-5v-38.3c0-2.8,2.2-5,5-5H624c2.8,0,5,2.2,5,5v38.3
	C629,530.4,626.7,532.6,624,532.6z"/>
<text transform="matrix(1 0 0 1 537.2191 515.0542)" fill="#FFFFFF" font-family="'HelveticaNeue-Light'" font-size="17">Selector</text>
<linearGradient id="SVGID_5_" gradientUnits="userSpaceOnUse" x1="705.8043" y1="484.2849" x2="705.8043" y2="532.6122">
	<stop  offset="0" style="stop-color:#6DBB48"/>
	<stop  offset="1" style="stop-color:#168A32"/>
</linearGradient>
<path fill="url(#SVGID_5_)" d="M762.5,532.6H649.1c-2.8,0-5-2.2-5-5v-38.3c0-2.8,2.2-5,5-5h113.4c2.8,0,5,2.2,5,5v38.3
	C767.5,530.4,765.2,532.6,762.5,532.6z"/>
<text transform="matrix(1 0 0 1 656.8366 515.0542)" fill="#FFFFFF" font-family="'HelveticaNeue-Light'" font-size="17">StyleProperty</text>
<linearGradient id="SVGID_6_" gradientUnits="userSpaceOnUse" x1="292.3539" y1="383.397" x2="292.3539" y2="431.7243">
	<stop  offset="0" style="stop-color:#979797"/>
	<stop  offset="1" style="stop-color:#5E5E5E"/>
</linearGradient>
<path fill="url(#SVGID_6_)" d="M349,431.7H235.7c-2.8,0-5-2.2-5-5v-38.3c0-2.8,2.2-5,5-5H349c2.8,0,5,2.2,5,5v38.3
	C354,429.5,351.8,431.7,349,431.7z"/>
<text transform="matrix(1 0 0 1 263.5395 414.1662)" fill="#FFFFFF" font-family="'HelveticaNeue-Light'" font-size="17">Graphic</text>
<linearGradient id="SVGID_7_" gradientUnits="userSpaceOnUse" x1="430.9693" y1="383.397" x2="430.9693" y2="431.7243">
	<stop  offset="0" style="stop-color:#979797"/>
	<stop  offset="1" style="stop-color:#5E5E5E"/>
</linearGradient>
<path fill="url(#SVGID_7_)" d="M487.6,431.7H374.3c-2.8,0-5-2.2-5-5v-38.3c0-2.8,2.2-5,5-5h113.4c2.8,0,5,2.2,5,5v38.3
	C492.6,429.5,490.4,431.7,487.6,431.7z"/>
<text transform="matrix(1 0 0 1 396.0177 414.1662)" fill="#FFFFFF" font-family="'HelveticaNeue-Light'" font-size="17">SkinState</text>
<text transform="matrix(1 0 0 1 552.7621 414.1662)" fill="#FFFFFF" font-family="'HelveticaNeue-Light'" font-size="17">Style</text>
<g>
	<g>
		<g>
			<polygon fill="#3F3B3C" points="428.9,344 428.9,363.4 424.3,363.4 429.5,372.6 434.8,363.4 430.2,363.4 430.2,344 			"/>
		</g>
	</g>
</g>
<g>
	<g>
		<g>
			<polygon fill="#3F3B3C" points="571.4,447.6 571.4,467.1 566.7,467.1 572,476.2 577.3,467.1 572.6,467.1 572.6,447.6 			"/>
		</g>
	</g>
</g>
<g>
	<g>
		<g>
			<path fill="#3F3B3C" d="M508.9,302.3c0,0,38.4,0,76.7,0c4.7,0,9.3,0,13.9,0h1.6c0.4-0.1,0.2,0.3,0.3,0.5v0.8c0,1,0,2.1,0,3.1
				c0,2.3,0,4.6,0,6.8c0,9,0,17.4,0,24.6c0,10.9,0,18.2,0,18.2h-4.6l1.4,2.4l3.9,6.7l3.9-6.7l1.4-2.4h-4.6c0,0,0-7.3,0-18.2
				c0-7.2,0-15.6,0-24.6c0-2.3,0-4.6,0-6.9c0-1.3,0-2.6,0-3.9v-1c0-0.3,0.2-0.8-0.3-0.7h-2c-4.8,0-9.8,0-14.7,0
				c-38.4,0-76.7,0-76.7,0V302.3z"/>
		</g>
	</g>
</g>
<g>
	<g>
		<g>
			<path fill="#3F3B3C" d="M652.7,413.2h27.6h13.8h6.8h3h0.8h0.4c0,0,0.1,0,0.1,0v0.1v0.2v1.5v52v0.1h-4.6l5.3,9.1l5.3-9.1h-4.6V467
				v-52.8v-1.9V412v-0.1c0,0-0.1,0-0.1,0h-0.5h-1H701h-6.9h-13.8h-27.6V413.2z"/>
		</g>
	</g>
</g>
<g>
	<g>
		<g>
			<path fill="#3F3B3C" d="M340.1,303.1h-25.9h-13h-6.6H291h-0.9h-0.5c0,0-0.1,0-0.1,0l0,0.1l0,0.2l0,1.8l-0.2,48.9l0,0l-4.6,0
				l5.2,9.1l5.3-9.1l-4.6,0l0,0l0.2-48.1l0-1.4l0-0.2l0-0.1c0,0,0.1,0,0.1,0h0.4h0.7h2.9h6.4h13h25.9V303.1z"/>
		</g>
	</g>
</g>
<g>
	<g>
		<g>
			<polygon fill="#3F3B3C" points="428,111.6 428,156.2 423.4,156.2 428.6,165.3 433.9,156.2 429.3,156.2 429.3,111.6 			"/>
		</g>
	</g>
</g>
<g>
	<g>
		<g>
			<polygon fill="#3F3B3C" points="428,243.1 428,260.8 423.4,260.8 428.6,269.9 433.9,260.8 429.3,260.8 429.3,243.1 			"/>
		</g>
	</g>
</g>
<text transform="matrix(1 0 0 1 237.5455 62.6045)"><tspan x="0" y="0" font-family="'HelveticaNeue-Light'" font-size="17">This diagram describes the basic parts an Element </tspan><tspan x="76.1" y="20.4" font-family="'HelveticaNeue-Light'" font-size="17">such as the Button consists of</tspan></text>
<g>
	<path fill="none" stroke="#3F3B3C" stroke-width="0.4" stroke-miterlimit="10" d="M782,361.7"/>
</g>
</svg>
