<?xml version="1.0" encoding="utf-8"?>
<!-- Generator: Adobe Illustrator 18.0.0, SVG Export Plug-In . SVG Version: 6.00 Build 0)  -->
<!DOCTYPE svg PUBLIC "-//W3C//DTD SVG 1.1//EN" "http://www.w3.org/Graphics/SVG/1.1/DTD/svg11.dtd">
<svg version="1.1" xmlns="http://www.w3.org/2000/svg" xmlns:xlink="http://www.w3.org/1999/xlink" x="0px" y="0px"
	 viewBox="0 0 120 120" enable-background="new 0 0 120 120" xml:space="preserve">
<g id="bg">
	<linearGradient id="SVGID_1_" gradientUnits="userSpaceOnUse" x1="60" y1="-1.339686e-09" x2="60" y2="120">
		<stop  offset="0" style="stop-color:#5AD427"/>
		<stop  offset="1" style="stop-color:#A4E786"/>
	</linearGradient>
	<path fill="url(#SVGID_1_)" d="M89.8,0H30.2C13.6,0,0,13.6,0,30.2v59.7C0,106.4,13.6,120,30.2,120h59.7c16.6,0,30.2-13.6,30.2-30.2
		V30.2C120,13.6,106.4,0,89.8,0z"/>
</g>
<g id="guides">
</g>
<g id="Layer_3">
	<g>
		<path fill="#FFFFFF" d="M90.1,58.6C90.1,58.6,90.1,58.6,90.1,58.6c0-0.1,0-0.1,0-0.1c0,0,0,0,0-0.1c0,0,0,0,0-0.1c0,0,0,0,0,0
			c-0.1-0.5-0.3-0.9-0.6-1.2c-1.9-2.2-4.1-4.2-6.4-6.1c-4.9-3.9-10.6-7.2-16.8-8.5c-3.6-0.8-7.2-0.8-10.8-0.1
			C52.2,43,49,44.3,46,45.8c-4.6,2.4-8.9,5.6-12.6,9.3c-0.7,0.7-1.4,1.4-2,2.1c-0.8,1-0.8,2.1,0,3.1c1.9,2.2,4.1,4.2,6.4,6.1
			c4.9,3.9,10.6,7.2,16.8,8.5c3.6,0.8,7.2,0.8,10.8,0.2c3.3-0.6,6.5-1.8,9.4-3.3c4.6-2.4,8.9-5.6,12.6-9.3c0.7-0.7,1.4-1.4,2-2.1
			c0.3-0.3,0.5-0.8,0.6-1.2c0,0,0,0,0,0c0,0,0,0,0-0.1c0,0,0,0,0-0.1c0,0,0,0,0,0c0,0,0,0,0-0.1c0,0,0-0.1,0-0.1
			S90.1,58.7,90.1,58.6z M60.5,70.2c-6.3,0-11.4-5.1-11.4-11.4c0-6.3,5.1-11.4,11.4-11.4s11.4,5.1,11.4,11.4S66.8,70.2,60.5,70.2z"
			/>
		<circle fill="#FFFFFF" cx="60.5" cy="58.7" r="3.8"/>
	</g>
</g>
</svg>
