<?xml version="1.0" encoding="utf-8"?>
<!-- Generator: Adobe Illustrator 18.0.0, SVG Export Plug-In . SVG Version: 6.00 Build 0)  -->
<!DOCTYPE svg PUBLIC "-//W3C//DTD SVG 1.1//EN" "http://www.w3.org/Graphics/SVG/1.1/DTD/svg11.dtd">
<svg version="1.1" xmlns="http://www.w3.org/2000/svg" xmlns:xlink="http://www.w3.org/1999/xlink" x="0px" y="0px"
	 viewBox="0 0 120 120" enable-background="new 0 0 120 120" xml:space="preserve">
<g id="bg">
	<linearGradient id="SVGID_1_" gradientUnits="userSpaceOnUse" x1="60" y1="120" x2="60" y2="-1.338776e-09">
		<stop  offset="0" style="stop-color:#4B4B4B"/>
		<stop  offset="1" style="stop-color:#2B2C2B"/>
	</linearGradient>
	<path fill="url(#SVGID_1_)" d="M89.8,0H30.2C13.6,0,0,13.6,0,30.2v59.7C0,106.4,13.6,120,30.2,120h59.7c16.6,0,30.2-13.6,30.2-30.2
		V30.2C120,13.6,106.4,0,89.8,0z"/>
</g>
<g id="guides">
</g>
<g id="Layer_3">
	<g>
		<path fill="#FFFFFF" d="M39.6,38.1v44.4h16.7V38.1H39.6z M48.9,77.8c0,0.6-0.4,1-1,1s-1-0.4-1-1V60.2c0-0.6,0.4-1,1-1s1,0.4,1,1
			V77.8z M47.9,51.1c-2.6,0-4.7-2.1-4.7-4.7c0-2.6,2.1-4.7,4.7-4.7s4.7,2.1,4.7,4.7C52.6,49,50.5,51.1,47.9,51.1z"/>
		<path fill="#FFFFFF" d="M75.1,36.7L58.9,41l11.4,42.9l16.1-4.4L75.1,36.7z M70.3,51.4c-0.4,0.1-0.8,0.2-1.2,0.2
			c-2.1,0-4-1.4-4.5-3.5c-0.7-2.5,0.8-5.1,3.3-5.8c0.4-0.1,0.8-0.2,1.2-0.2c2.1,0,4,1.4,4.5,3.5c0.3,1.2,0.2,2.5-0.5,3.6
			C72.6,50.3,71.5,51.1,70.3,51.4z M77.5,78.2c-0.1,0-0.2,0-0.3,0c-0.4,0-0.8-0.3-1-0.7l-4.6-16.9c-0.1-0.5,0.2-1.1,0.7-1.2
			c0.5-0.1,1.1,0.2,1.2,0.7L78,77C78.3,77.5,78,78,77.5,78.2z"/>
	</g>
</g>
</svg>
