<?xml version="1.0" encoding="utf-8"?>
<!-- Generator: Adobe Illustrator 18.0.0, SVG Export Plug-In . SVG Version: 6.00 Build 0)  -->
<!DOCTYPE svg PUBLIC "-//W3C//DTD SVG 1.1//EN" "http://www.w3.org/Graphics/SVG/1.1/DTD/svg11.dtd">
<svg version="1.1" xmlns="http://www.w3.org/2000/svg" xmlns:xlink="http://www.w3.org/1999/xlink" x="0px" y="0px"
	 viewBox="0 0 120 120" enable-background="new 0 0 120 120" xml:space="preserve">
<g id="bg">
	<g id="Layer_4">
	</g>
	<g>
		<defs>
			<path id="SVGID_1_" d="M89.8,0H30.2C13.6,0,0,13.6,0,30.2v59.7C0,106.4,13.6,120,30.2,120h59.7c16.6,0,30.2-13.6,30.2-30.2V30.2
				C120,13.6,106.4,0,89.8,0z"/>
		</defs>
		<clipPath id="SVGID_2_">
			<use xlink:href="#SVGID_1_"  overflow="visible"/>
		</clipPath>
		<polygon clip-path="url(#SVGID_2_)" fill="#F82251" points="80,60 100,60 120,60 120,120 100,120 80,120 60,120 60,60 		"/>
		<rect x="0" y="60" clip-path="url(#SVGID_2_)" fill="#32E3E5" width="60" height="60"/>
		<polygon clip-path="url(#SVGID_2_)" fill="#38FDA3" points="30,60 30,60 60,60 60,0 30,0 30,0 0,0 0,60 		"/>
		<rect x="60" y="0" clip-path="url(#SVGID_2_)" fill="#FDD752" width="60" height="60"/>
	</g>
</g>
<g id="guides">
</g>
<g id="Layer_3">
</g>
</svg>
