<?xml version="1.0" encoding="utf-8"?>
<!-- Generator: Adobe Illustrator 18.0.0, SVG Export Plug-In . SVG Version: 6.00 Build 0)  -->
<!DOCTYPE svg PUBLIC "-//W3C//DTD SVG 1.1//EN" "http://www.w3.org/Graphics/SVG/1.1/DTD/svg11.dtd">
<svg version="1.1" xmlns="http://www.w3.org/2000/svg" xmlns:xlink="http://www.w3.org/1999/xlink" x="0px" y="0px"
	 viewBox="0 0 120 120" enable-background="new 0 0 120 120" xml:space="preserve">
<g id="bg">
	<linearGradient id="SVGID_1_" gradientUnits="userSpaceOnUse" x1="60" y1="120" x2="60" y2="-1.338776e-09">
		<stop  offset="0" style="stop-color:#FF9500"/>
		<stop  offset="1" style="stop-color:#FF5E3A"/>
	</linearGradient>
	<path fill="url(#SVGID_1_)" d="M89.8,0H30.2C13.6,0,0,13.6,0,30.2v59.7C0,106.4,13.6,120,30.2,120h59.7c16.6,0,30.2-13.6,30.2-30.2
		V30.2C120,13.6,106.4,0,89.8,0z"/>
</g>
<g id="guides">
</g>
<g id="Layer_3">
	<linearGradient id="SVGID_2_" gradientUnits="userSpaceOnUse" x1="242.0529" y1="400" x2="242.0529" y2="287.1102">
		<stop  offset="0" style="stop-color:#DA579E"/>
		<stop  offset="1" style="stop-color:#955AA3"/>
	</linearGradient>
	<path fill="url(#SVGID_2_)" d="M292.2,366.9c0,3.5-1.9,6.8-4.9,8.5L247,398.7c-3,1.8-6.8,1.8-9.8,0l-40.3-23.3
		c-3-1.8-4.9-5-4.9-8.5v-46.6c0-3.5,1.9-6.8,4.9-8.5l40.3-23.3c3-1.8,6.8-1.8,9.8,0l40.3,23.3c3,1.8,4.9,5,4.9,8.5V366.9z"/>
	<path fill="#FFFFFF" d="M258.5,356.1l-4.4-18.1c-0.3-1.5-1.7-2.7-3.2-2.7h-2.2V332h3.3v-5h-19.8v5h3.3v3.3h-2.1
		c-1.6,0-2.9,1.1-3.2,2.6l-4.4,18.1c-0.4,2,1.1,4,3.2,4h26.4C257.4,360,258.9,358.1,258.5,356.1z M235.1,345.2l0.8-3.3h12.4l0.8,3.3
		H235.1z"/>
	<path fill="#FFFFFF" d="M62.8,76.5V56.6c1.1-0.2,2.2-0.6,3.2-1.1l11.2,14.1c-1.1,1.5-1.8,3.4-1.8,5.5c0,5.2,4.2,9.3,9.3,9.3
		c5.2,0,9.3-4.2,9.3-9.3c0-5.2-4.2-9.3-9.3-9.3c-1.3,0-2.7,0.3-3.9,0.9l-11.1-14c1.9-2.1,3.1-5,3.1-8.1c0-6.8-5.6-12.3-12.3-12.3
		c-6.7,0-12.3,5.6-12.3,12.3c0,3.1,1.1,5.9,3,8l-11.1,14c-1.1-0.5-2.4-0.8-3.7-0.8c-5.2,0-9.3,4.2-9.3,9.3c0,5.2,4.2,9.3,9.3,9.3
		s9.3-4.2,9.3-9.3c0-2.1-0.7-4-1.9-5.6l11.1-14c1,0.6,2.1,1,3.3,1.2v19.9c-4,1-7,4.7-7,9c0,5.2,4.2,9.3,9.3,9.3s9.3-4.2,9.3-9.3
		C69.7,81.1,66.8,77.5,62.8,76.5z M89.2,75.1c0,2.5-2.1,4.6-4.6,4.6c-2.5,0-4.6-2.1-4.6-4.6s2.1-4.6,4.6-4.6
		C87.2,70.5,89.2,72.6,89.2,75.1z M60.5,36.9c4.2,0,7.6,3.4,7.6,7.6s-3.4,7.6-7.6,7.6s-7.6-3.4-7.6-7.6S56.3,36.9,60.5,36.9z
		 M36.3,79.6c-2.5,0-4.6-2.1-4.6-4.6s2.1-4.6,4.6-4.6s4.6,2.1,4.6,4.6C40.9,77.7,38.8,79.6,36.3,79.6z M60.5,90
		c-2.5,0-4.6-2.1-4.6-4.6s2.1-4.6,4.6-4.6s4.6,2.1,4.6,4.6S63,90,60.5,90z"/>
</g>
</svg>
