<?xml version="1.0" encoding="utf-8"?>
<!-- Generator: Adobe Illustrator 18.0.0, SVG Export Plug-In . SVG Version: 6.00 Build 0)  -->
<!DOCTYPE svg PUBLIC "-//W3C//DTD SVG 1.1//EN" "http://www.w3.org/Graphics/SVG/1.1/DTD/svg11.dtd">
<svg version="1.1" id="Layer_1" xmlns="http://www.w3.org/2000/svg" xmlns:xlink="http://www.w3.org/1999/xlink" x="0px" y="0px"
	 viewBox="0 0 113.1 113.1" enable-background="new 0 0 113.1 113.1" xml:space="preserve">
<linearGradient id="SVGID_1_" gradientUnits="userSpaceOnUse" x1="56.5441" y1="-1.1862" x2="56.5441" y2="114.8216">
	<stop  offset="0" style="stop-color:#FEFEFE"/>
	<stop  offset="1" style="stop-color:#858585"/>
</linearGradient>
<circle fill="url(#SVGID_1_)" cx="56.5" cy="56.5" r="56.5"/>
<linearGradient id="SVGID_2_" gradientUnits="userSpaceOnUse" x1="56.5441" y1="5.5358" x2="56.5441" y2="107.5524">
	<stop  offset="0" style="stop-color:#2CC1FC"/>
	<stop  offset="1" style="stop-color:#1771E6"/>
</linearGradient>
<circle fill="url(#SVGID_2_)" cx="56.5" cy="56.5" r="51"/>
<g>
	
		<image overflow="visible" opacity="0.1" width="393" height="316" xlink:href="55FD0D8CAD285576.png"  transform="matrix(0.24 0 0 0.24 9.4427 25.7257)">
	</image>
	<g>
		<path fill="#FFFFFF" d="M56.4,88.4c-8.2,0-15.9-3.1-21.9-8.7l5.8-5.8c4.4,4.1,10.1,6.3,16.1,6.3c6.3,0,12.3-2.5,16.7-6.9
			c4.4-4.4,6.9-10.3,6.9-16.6l0-0.9H69.7l14-14l14,14h-9.4l0,0.9c0,8.4-3.3,16.4-9.3,22.4C72.9,85.1,64.9,88.4,56.4,88.4z
			 M15.4,57.5l9.1,0l0-0.9c0-8.5,3.3-16.6,9.3-22.6c6-6,14-9.3,22.5-9.3c8.2,0,15.9,3.1,21.9,8.7l-5.8,5.8
			c-4.4-4.1-10.1-6.3-16.1-6.3c-6.3,0-12.3,2.5-16.7,6.9c-4.5,4.5-7,10.5-6.9,16.9l0,0.9l9.8,0L29,71.1L15.4,57.5z"/>
	</g>
</g>
</svg>
