<?xml version="1.0" encoding="utf-8"?>
<!-- Generator: Adobe Illustrator 18.0.0, SVG Export Plug-In . SVG Version: 6.00 Build 0)  -->
<!DOCTYPE svg PUBLIC "-//W3C//DTD SVG 1.1//EN" "http://www.w3.org/Graphics/SVG/1.1/DTD/svg11.dtd">
<svg version="1.1" xmlns="http://www.w3.org/2000/svg" xmlns:xlink="http://www.w3.org/1999/xlink" x="0px" y="0px"
	 viewBox="0 0 120 120" enable-background="new 0 0 120 120" xml:space="preserve">
<g id="bg">
	<linearGradient id="SVGID_1_" gradientUnits="userSpaceOnUse" x1="60" y1="120" x2="60" y2="-1.338776e-09">
		<stop  offset="0" style="stop-color:#C644FC"/>
		<stop  offset="1" style="stop-color:#5856D6"/>
	</linearGradient>
	<path fill="url(#SVGID_1_)" d="M89.8,0H30.2C13.6,0,0,13.6,0,30.2v59.7C0,106.4,13.6,120,30.2,120h59.7c16.6,0,30.2-13.6,30.2-30.2
		V30.2C120,13.6,106.4,0,89.8,0z"/>
</g>
<g id="guides">
</g>
<g id="Layer_3">
	<g>
		<path fill="#FFFFFF" d="M59.8,97.7c-9.7,0-18.9-3.7-25.9-10.3l6.8-6.8C46,85.4,52.7,88,59.8,88c7.5,0,14.5-2.9,19.8-8.2
			c5.2-5.2,8.2-12.2,8.2-19.6l0-1H75.6l16.5-16.5l16.5,16.5H97.5l0,1c0,10-4,19.4-11,26.5C79.4,93.8,69.9,97.7,59.8,97.7z
			 M11.3,61.2l10.8,0l0-1c0-10.1,3.9-19.6,11-26.8c7.1-7.1,16.6-11,26.7-11c9.7,0,18.9,3.7,25.9,10.3l-6.8,6.8
			C73.7,34.6,67,32,59.8,32c-7.5,0-14.5,2.9-19.8,8.2c-5.3,5.3-8.2,12.4-8.2,20l0,1l11.6,0L27.4,77.3L11.3,61.2z"/>
	</g>
</g>
</svg>
