<?xml version="1.0" encoding="utf-8"?>
<!-- Generator: Adobe Illustrator 18.0.0, SVG Export Plug-In . SVG Version: 6.00 Build 0)  -->
<!DOCTYPE svg PUBLIC "-//W3C//DTD SVG 1.1//EN" "http://www.w3.org/Graphics/SVG/1.1/DTD/svg11.dtd">
<svg version="1.1" xmlns="http://www.w3.org/2000/svg" xmlns:xlink="http://www.w3.org/1999/xlink" x="0px" y="0px"
	 viewBox="0 0 120 120" enable-background="new 0 0 120 120" xml:space="preserve">
<g id="bg">
	<linearGradient id="SVGID_1_" gradientUnits="userSpaceOnUse" x1="60" y1="120" x2="60" y2="-1.338776e-09">
		<stop  offset="0" style="stop-color:#1AD6FD"/>
		<stop  offset="1" style="stop-color:#1D62F0"/>
	</linearGradient>
	<path fill="url(#SVGID_1_)" d="M89.8,0H30.2C13.6,0,0,13.6,0,30.2v59.7C0,106.4,13.6,120,30.2,120h59.7c16.6,0,30.2-13.6,30.2-30.2
		V30.2C120,13.6,106.4,0,89.8,0z"/>
</g>
<g id="guides">
</g>
<g id="Layer_3">
	<path fill="#FFFFFF" d="M81,57c-7.5-4.2-15.9-16.2-19.5-21.6c0.9-0.3,1.5-1.2,1.5-2.4c0-1.8-1.2-3-3-3c-1.8,0-3,1.2-3,3
		c0,1.2,0.6,2.1,1.5,2.4C54.9,40.8,46.5,52.8,39,57l3,3.3c4.2,4.5,6.3,10.5,6.3,16.8L48,81h-3v9h30v-9h-3l-0.3-3.6
		c0-6.3,2.1-12.3,6.3-16.8L81,57z M60,54c3.3,0,6,2.7,6,6s-2.7,6-6,6c-3.3,0-6-2.7-6-6S56.7,54,60,54z"/>
</g>
</svg>
