<?xml version="1.0" encoding="UTF-8"?>
<svg width="288px" height="108px" viewBox="0 0 288 108" version="1.1" xmlns="http://www.w3.org/2000/svg" xmlns:xlink="http://www.w3.org/1999/xlink">
    <!-- Generator: Sketch 47.1 (45422) - http://www.bohemiancoding.com/sketch -->
    <title>Custom Preset 9</title>
    <desc>Created with Sketch.</desc>
    <defs></defs>
    <g id="Page-1" stroke="none" stroke-width="1" fill="none" fill-rule="evenodd">
        <path d="M2.4,42.24 L62.4,42.24 L62.4,85.68 L64.8,85.68 L64.8,0 L62.4,0 L62.4,39.84 L2.4,39.84 L2.4,0 L0,0 L0,85.68 L2.4,85.68 L2.4,42.24 Z M119.04,24 L96.96,82.44 L72.48,24 L69.96,24 L95.64,85.08 L91.2,96.48 C90.4799964,98.3200092 89.7000042,99.7799946 88.86,100.86 C88.0199958,101.940005 87.0600054,102.739997 85.98,103.26 C84.8999946,103.780003 83.6200074,104.099999 82.14,104.22 C80.6599926,104.340001 78.8800104,104.4 76.8,104.4 L76.8,106.8 C78.6400092,106.8 80.3799918,106.740001 82.02,106.62 C83.6600082,106.499999 85.1599932,106.160003 86.52,105.6 C87.8800068,105.039997 89.1199944,104.180006 90.24,103.02 C91.3600056,101.859994 92.319996,100.24001 93.12,98.16 L121.56,24 L119.04,24 Z M129.12,41.28 L129.36,41.28 C130.800007,35.679972 133.639979,31.1600172 137.88,27.72 C142.120021,24.2799828 147.519967,22.56 154.08,22.56 C158.320021,22.56 162.079984,23.4399912 165.36,25.2 C168.640016,26.9600088 171.379989,29.3199852 173.58,32.28 C175.780011,35.2400148 177.459994,38.6799804 178.62,42.6 C179.780006,46.5200196 180.36,50.6399784 180.36,54.96 C180.36,59.6000232 179.760006,63.8799804 178.56,67.8 C177.359994,71.7200196 175.620011,75.0999858 173.34,77.94 C171.059989,80.7800142 168.300016,82.999992 165.06,84.6 C161.819984,86.200008 158.16002,87 154.08,87 C147.759968,87 142.460021,85.2800172 138.18,81.84 C133.899979,78.3999828 130.960008,73.9200276 129.36,68.4 L129.12,68.4 L129.12,85.68 L126.72,85.68 L126.72,0 L129.12,0 L129.12,41.28 Z M129.12,54.96 C129.12,58.96002 129.679994,62.759982 130.8,66.36 C131.920006,69.960018 133.539989,73.1199864 135.66,75.84 C137.780011,78.5600136 140.399984,80.719992 143.52,82.32 C146.640016,83.920008 150.15998,84.72 154.08,84.72 C158.08002,84.72 161.579985,83.920008 164.58,82.32 C167.580015,80.719992 170.05999,78.5400138 172.02,75.78 C173.98001,73.0199862 175.459995,69.840018 176.46,66.24 C177.460005,62.639982 177.96,58.8800196 177.96,54.96 C177.96,51.359982 177.500005,47.7800178 176.58,44.22 C175.659995,40.6599822 174.24001,37.4600142 172.32,34.62 C170.39999,31.7799858 167.940015,29.460009 164.94,27.66 C161.939985,25.859991 158.320021,24.96 154.08,24.96 C146.559962,24.96 140.520023,27.5399742 135.96,32.7 C131.399977,37.8600258 129.12,45.2799516 129.12,54.96 Z M193.56,85.68 L193.56,50.76 C193.56,47.3999832 194.039995,44.120016 195,40.92 C195.960005,37.719984 197.43999,34.9000122 199.44,32.46 C201.44001,30.0199878 203.979985,28.100007 207.06,26.7 C210.140015,25.299993 213.799979,24.7199988 218.04,24.96 L218.04,22.56 C214.359982,22.4799996 211.140014,22.8799956 208.38,23.76 C205.619986,24.6400044 203.24001,25.8399924 201.24,27.36 C199.23999,28.8800076 197.640006,30.6599898 196.44,32.7 C195.239994,34.7400102 194.360003,36.9199884 193.8,39.24 L193.56,39.24 L193.56,24 L191.16,24 L191.16,85.68 L193.56,85.68 Z M224.64,12.12 L224.64,0 L222.24,0 L222.24,12.12 L224.64,12.12 Z M224.64,85.68 L224.64,24 L222.24,24 L222.24,85.68 L224.64,85.68 Z M285.84,0 L288.24,0 L288.24,85.68 L285.84,85.68 L285.84,68.4 L285.6,68.4 C283.999992,73.9200276 281.060021,78.3999828 276.78,81.84 C272.499979,85.2800172 267.200032,87 260.88,87 C256.79998,87 253.140016,86.200008 249.9,84.6 C246.659984,82.999992 243.900011,80.7800142 241.62,77.94 C239.339989,75.0999858 237.600006,71.7200196 236.4,67.8 C235.199994,63.8799804 234.6,59.6000232 234.6,54.96 C234.6,50.6399784 235.179994,46.5200196 236.34,42.6 C237.500006,38.6799804 239.179989,35.2400148 241.38,32.28 C243.580011,29.3199852 246.319984,26.9600088 249.6,25.2 C252.880016,23.4399912 256.639979,22.56 260.88,22.56 C267.440033,22.56 272.839979,24.2799828 277.08,27.72 C281.320021,31.1600172 284.159993,35.679972 285.6,41.28 L285.84,41.28 L285.84,0 Z M285.84,54.96 C285.84,45.2799516 283.560023,37.8600258 279,32.7 C274.439977,27.5399742 268.400038,24.96 260.88,24.96 C256.719979,24.96 253.120015,25.859991 250.08,27.66 C247.039985,29.460009 244.56001,31.7799858 242.64,34.62 C240.71999,37.4600142 239.300005,40.6599822 238.38,44.22 C237.459995,47.7800178 237,51.359982 237,54.96 C237,58.8800196 237.499995,62.639982 238.5,66.24 C239.500005,69.840018 240.97999,73.0199862 242.94,75.78 C244.90001,78.5400138 247.379985,80.719992 250.38,82.32 C253.380015,83.920008 256.87998,84.72 260.88,84.72 C264.88002,84.72 268.419985,83.920008 271.5,82.32 C274.580015,80.719992 277.179989,78.5600136 279.3,75.84 C281.420011,73.1199864 283.039994,69.960018 284.16,66.36 C285.280006,62.759982 285.84,58.96002 285.84,54.96 Z" id="Hybrid" fill="#50E3C2"></path>
        <g id="Custom-Preset-9"></g>
    </g>
</svg>