<?xml version="1.0" encoding="UTF-8"?>
<svg width="360px" height="154px" viewBox="0 0 360 154" version="1.1" xmlns="http://www.w3.org/2000/svg" xmlns:xlink="http://www.w3.org/1999/xlink">
    <!-- Generator: Sketch 47.1 (45422) - http://www.bohemiancoding.com/sketch -->
    <title>Custom Preset 9</title>
    <desc>Created with Sketch.</desc>
    <defs></defs>
    <g id="Page-1" stroke="none" stroke-width="1" fill="none" fill-rule="evenodd">
        <path d="M38.3,68.5599997 L98.3,68.5599997 L98.3,112 L100.7,112 L100.7,26.3199997 L98.3,26.3199997 L98.3,66.1599997 L38.3,66.1599997 L38.3,26.3199997 L35.9,26.3199997 L35.9,112 L38.3,112 L38.3,68.5599997 Z M154.94,50.3199997 L132.86,108.76 L108.38,50.3199997 L105.86,50.3199997 L131.54,111.4 L127.1,122.8 C126.379996,124.640009 125.600004,126.099994 124.76,127.18 C123.919996,128.260005 122.960005,129.059997 121.88,129.58 C120.799995,130.100002 119.520007,130.419999 118.04,130.54 C116.559993,130.66 114.78001,130.72 112.7,130.72 L112.7,133.12 C114.540009,133.12 116.279992,133.06 117.92,132.94 C119.560008,132.819999 121.059993,132.480002 122.42,131.92 C123.780007,131.359997 125.019994,130.500005 126.14,129.34 C127.260006,128.179994 128.219996,126.56001 129.02,124.48 L157.46,50.3199997 L154.94,50.3199997 Z M165.02,67.5999997 L165.26,67.5999997 C166.700007,61.9999717 169.539979,57.4800169 173.78,54.0399997 C178.020021,50.5999825 183.419967,48.8799997 189.98,48.8799997 C194.220021,48.8799997 197.979984,49.7599909 201.26,51.5199997 C204.540016,53.2800085 207.279989,55.6399849 209.48,58.5999997 C211.680011,61.5600145 213.359994,64.9999801 214.52,68.9199997 C215.680006,72.8400193 216.26,76.9599781 216.26,81.2799997 C216.26,85.9200229 215.660006,90.1999801 214.46,94.1199997 C213.259994,98.0400193 211.520011,101.419985 209.24,104.26 C206.959989,107.100014 204.200016,109.319992 200.96,110.92 C197.719984,112.520008 194.06002,113.32 189.98,113.32 C183.659968,113.32 178.360021,111.600017 174.08,108.16 C169.799979,104.719982 166.860008,100.240027 165.26,94.7199997 L165.02,94.7199997 L165.02,112 L162.62,112 L162.62,26.3199997 L165.02,26.3199997 L165.02,67.5999997 Z M165.02,81.2799997 C165.02,85.2800197 165.579994,89.0799817 166.7,92.6799997 C167.820006,96.2800177 169.439989,99.4399861 171.56,102.16 C173.680011,104.880013 176.299984,107.039992 179.42,108.64 C182.540016,110.240008 186.05998,111.04 189.98,111.04 C193.98002,111.04 197.479985,110.240008 200.48,108.64 C203.480015,107.039992 205.95999,104.860013 207.92,102.1 C209.88001,99.3399859 211.359995,96.1600177 212.36,92.5599997 C213.360005,88.9599817 213.86,85.2000193 213.86,81.2799997 C213.86,77.6799817 213.400005,74.1000175 212.48,70.5399997 C211.559995,66.9799819 210.14001,63.7800139 208.22,60.9399997 C206.29999,58.0999855 203.840015,55.7800087 200.84,53.9799997 C197.839985,52.1799907 194.220021,51.2799997 189.98,51.2799997 C182.459962,51.2799997 176.420023,53.8599739 171.86,59.0199997 C167.299977,64.1800255 165.02,71.5999513 165.02,81.2799997 Z M229.46,112 L229.46,77.0799997 C229.46,73.7199829 229.939995,70.4400157 230.9,67.2399997 C231.860005,64.0399837 233.33999,61.2200119 235.34,58.7799997 C237.34001,56.3399875 239.879985,54.4200067 242.96,53.0199997 C246.040015,51.6199927 249.699979,51.0399985 253.94,51.2799997 L253.94,48.8799997 C250.259982,48.7999993 247.040014,49.1999953 244.28,50.0799997 C241.519986,50.9600041 239.14001,52.1599921 237.14,53.6799997 C235.13999,55.2000073 233.540006,56.9799895 232.34,59.0199997 C231.139994,61.0600099 230.260003,63.2399881 229.7,65.5599997 L229.46,65.5599997 L229.46,50.3199997 L227.06,50.3199997 L227.06,112 L229.46,112 Z M260.54,38.4399997 L260.54,26.3199997 L258.14,26.3199997 L258.14,38.4399997 L260.54,38.4399997 Z M260.54,112 L260.54,50.3199997 L258.14,50.3199997 L258.14,112 L260.54,112 Z M321.74,26.3199997 L324.14,26.3199997 L324.14,112 L321.74,112 L321.74,94.7199997 L321.5,94.7199997 C319.899992,100.240027 316.960021,104.719982 312.68,108.16 C308.399979,111.600017 303.100032,113.32 296.78,113.32 C292.69998,113.32 289.040016,112.520008 285.8,110.92 C282.559984,109.319992 279.800011,107.100014 277.52,104.26 C275.239989,101.419985 273.500006,98.0400193 272.3,94.1199997 C271.099994,90.1999801 270.5,85.9200229 270.5,81.2799997 C270.5,76.9599781 271.079994,72.8400193 272.24,68.9199997 C273.400006,64.9999801 275.079989,61.5600145 277.28,58.5999997 C279.480011,55.6399849 282.219984,53.2800085 285.5,51.5199997 C288.780016,49.7599909 292.539979,48.8799997 296.78,48.8799997 C303.340033,48.8799997 308.739979,50.5999825 312.98,54.0399997 C317.220021,57.4800169 320.059993,61.9999717 321.5,67.5999997 L321.74,67.5999997 L321.74,26.3199997 Z M321.74,81.2799997 C321.74,71.5999513 319.460023,64.1800255 314.9,59.0199997 C310.339977,53.8599739 304.300038,51.2799997 296.78,51.2799997 C292.619979,51.2799997 289.020015,52.1799907 285.98,53.9799997 C282.939985,55.7800087 280.46001,58.0999855 278.54,60.9399997 C276.61999,63.7800139 275.200005,66.9799819 274.28,70.5399997 C273.359995,74.1000175 272.9,77.6799817 272.9,81.2799997 C272.9,85.2000193 273.399995,88.9599817 274.4,92.5599997 C275.400005,96.1600177 276.87999,99.3399859 278.84,102.1 C280.80001,104.860013 283.279985,107.039992 286.28,108.64 C289.280015,110.240008 292.77998,111.04 296.78,111.04 C300.78002,111.04 304.319985,110.240008 307.4,108.64 C310.480015,107.039992 313.079989,104.880013 315.2,102.16 C317.320011,99.4399861 318.939994,96.2800177 320.06,92.6799997 C321.180006,89.0799817 321.74,85.2800197 321.74,81.2799997 Z" id="Hybrid" fill="#50E3C2"></path>
        <g id="Custom-Preset-9"></g>
    </g>
</svg>