<?xml version="1.0" encoding="utf-8"?>
<!-- Generator: Adobe Illustrator 18.0.0, SVG Export Plug-In . SVG Version: 6.00 Build 0)  -->
<!DOCTYPE svg PUBLIC "-//W3C//DTD SVG 1.1//EN" "http://www.w3.org/Graphics/SVG/1.1/DTD/svg11.dtd">
<svg version="1.1" id="Layer_1" xmlns="http://www.w3.org/2000/svg" xmlns:xlink="http://www.w3.org/1999/xlink" x="0px" y="0px"
	 viewBox="0 0 900 600" enable-background="new 0 0 900 600" xml:space="preserve">
<g id="bg">
	
		<linearGradient id="SVGID_1_" gradientUnits="userSpaceOnUse" x1="9.999999e-02" y1="120" x2="0.1" y2="-1.335138e-09" gradientTransform="matrix(5 0 0 5 449.75 0)">
		<stop  offset="0" style="stop-color:#FF5E3A"/>
		<stop  offset="1" style="stop-color:#FF2A68"/>
	</linearGradient>
	<path fill="url(#SVGID_1_)" d="M599,0H301c-83,0-151,68-151,151v298.5C150,532,218,600,301,600h298.5c83,0,151-68,151-151V151
		C750,68,682,0,599,0z"/>
</g>
<g id="guides">
</g>
<g id="Layer_3">
	<g enable-background="new    ">
		<path fill="#FFFFFF" d="M289.2,236.9h24.4v68.3c0,30.8-14.7,41.5-38.5,41.5c-5.6,0-13-1-17.8-2.6l2.7-19.7
			c3.4,1.1,7.7,1.9,12.5,1.9c10.3,0,16.7-4.6,16.7-21.5L289.2,236.9L289.2,236.9z"/>
		<path fill="#FFFFFF" d="M334.7,319.8c6.6,3.4,16.7,6.7,27.1,6.7c11.2,0,17.2-4.6,17.2-11.7c0-6.7-5.1-10.6-18.1-15.2
			c-18-6.3-29.7-16.2-29.7-31.9c0-18.4,15.4-32.5,40.9-32.5c12.2,0,21.2,2.6,27.6,5.5l-5.5,19.7c-4.3-2.1-12-5.1-22.6-5.1
			s-15.7,4.8-15.7,10.4c0,6.9,6.1,9.9,20,15.2c19.1,7.1,28.1,17,28.1,32.2c0,18.1-13.9,33.5-43.6,33.5c-12.3,0-24.5-3.2-30.6-6.6
			L334.7,319.8z"/>
		<path fill="#FFFFFF" d="M519.4,289.8c0,35.4-21.5,56.9-53.1,56.9c-32.1,0-50.8-24.2-50.8-55c0-32.4,20.7-56.6,52.6-56.6
			C501.2,235.2,519.4,260,519.4,289.8z M441.3,291.3c0,21.2,9.9,36.1,26.3,36.1c16.5,0,26-15.7,26-36.7c0-19.4-9.3-36.1-26.1-36.1
			C450.9,254.6,441.3,270.3,441.3,291.3z"/>
		<path fill="#FFFFFF" d="M535.4,345V237h28.5l22.4,39.6c6.4,11.4,12.8,24.8,17.6,37h0.5c-1.6-14.3-2.1-28.9-2.1-45V237h22.4v108
			H599l-23.1-41.7c-6.4-11.5-13.5-25.5-18.8-38.2l-0.5,0.2c0.6,14.3,1,29.5,1,47.1V345H535.4z"/>
	</g>
</g>
</svg>
