<?xml version="1.0" encoding="utf-8"?>
<!-- Generator: Adobe Illustrator 18.0.0, SVG Export Plug-In . SVG Version: 6.00 Build 0)  -->
<!DOCTYPE svg PUBLIC "-//W3C//DTD SVG 1.1//EN" "http://www.w3.org/Graphics/SVG/1.1/DTD/svg11.dtd">
<svg version="1.1" xmlns="http://www.w3.org/2000/svg" xmlns:xlink="http://www.w3.org/1999/xlink" x="0px" y="0px"
	 viewBox="0 0 120 120" enable-background="new 0 0 120 120" xml:space="preserve">
<g id="bg">
	<linearGradient id="SVGID_1_" gradientUnits="userSpaceOnUse" x1="60" y1="120" x2="60" y2="-1.338776e-09">
		<stop  offset="0" style="stop-color:#FF5E3A"/>
		<stop  offset="1" style="stop-color:#FF2A68"/>
	</linearGradient>
	<path fill="url(#SVGID_1_)" d="M89.8,0H30.2C13.6,0,0,13.6,0,30.2v59.7C0,106.4,13.6,120,30.2,120h59.7c16.6,0,30.2-13.6,30.2-30.2
		V30.2C120,13.6,106.4,0,89.8,0z"/>
</g>
<g id="guides">
</g>
<g id="Layer_3">
	<g>
		<path fill="#FFFFFF" d="M58.6,84.7l-4-4V57c-3.5-2-5.9-5.9-5.9-10.3c0-6.5,5.3-11.8,11.8-11.8s11.8,5.3,11.8,11.8
			c0,4.5-2.5,8.4-6.1,10.4V64l-5.1,3.6l3.3,3.2v0.9L61,75l3.4,4.8v0.7l-4,4.2C59.8,85.2,59.3,85.3,58.6,84.7z M56.3,42.3
			c0,2.3,1.9,4.2,4.2,4.2c2.3,0,4.2-1.9,4.2-4.2c0-2.3-1.9-4.2-4.2-4.2C58.2,38.1,56.3,40,56.3,42.3z"/>
	</g>
</g>
</svg>
