<?xml version="1.0" encoding="UTF-8"?>
<svg width="200px" height="200px" viewBox="0 0 200 200" version="1.1" xmlns="http://www.w3.org/2000/svg" xmlns:xlink="http://www.w3.org/1999/xlink">
    <!-- Generator: Sketch 47.1 (45422) - http://www.bohemiancoding.com/sketch -->
    <title>Custom Preset 8</title>
    <desc>Created with Sketch.</desc>
    <defs></defs>
    <g id="Page-1" stroke="none" stroke-width="1" fill="none" fill-rule="evenodd">
        <g id="Custom-Preset-8" fill="#232323">
            <path d="M102.983346,94.4933407 C99.8674335,92.6943676 95.8831312,93.7619582 94.0841581,96.877871 C92.2851849,99.9937839 93.3527755,103.978086 96.4686884,105.777059 C99.5846012,107.576032 103.568904,106.508442 105.367877,103.392529 C107.16685,100.276616 106.099259,96.2923138 102.983346,94.4933407 Z" id="Oval"></path>
            <path d="M112.014037,78.8517255 C108.274797,76.6928739 103.493448,77.9740323 101.334596,81.713273 C99.1757449,85.4525136 100.456903,90.2338621 104.196144,92.3927137 C107.935385,94.5515653 112.716733,93.2704068 114.875585,89.5311661 C117.034436,85.7919255 115.753278,81.010577 112.014037,78.8517255 Z" id="Oval-Copy"></path>
            <path d="M87.7088712,78.7319387 C83.9696306,80.8907903 82.6884721,85.6721388 84.8473237,89.4113794 C87.0061753,93.15062 91.7875238,94.4317785 95.5267644,92.2729269 C99.2660051,90.1140753 100.547164,85.3327269 98.3883119,81.5934862 C96.2294603,77.8542456 91.4481119,76.5730871 87.7088712,78.7319387 Z" id="Oval-Copy"></path>
            <path d="M75.3454077,99.836899 C75.3454077,104.154602 78.8455977,107.654792 83.1633008,107.654792 C87.481004,107.654792 90.981194,104.154602 90.981194,99.836899 C90.981194,95.5191959 87.481004,92.0190059 83.1633008,92.0190059 C78.8455977,92.0190059 75.3454077,95.5191959 75.3454077,99.836899 Z" id="Oval-Copy"></path>
            <path d="M87.7030663,121.269926 C91.4423069,123.428777 96.2236554,122.147619 98.382507,118.408378 C100.541359,114.669138 99.2602001,109.887789 95.5209595,107.728938 C91.7817188,105.570086 87.0003704,106.851245 84.8415188,110.590485 C82.6826672,114.329726 83.9638256,119.111074 87.7030663,121.269926 Z" id="Oval-Copy"></path>
            <path d="M112.282967,121.066497 C116.022208,118.907646 117.303366,114.126297 115.144515,110.387057 C112.985663,106.647816 108.204314,105.366658 104.465074,107.525509 C100.725833,109.684361 99.4446747,114.465709 101.603526,118.20495 C103.762378,121.944191 108.543726,123.225349 112.282967,121.066497 Z" id="Oval-Copy"></path>
            <path d="M124.598725,99.9014699 C124.598725,95.5837667 121.098535,92.0835767 116.780832,92.0835767 C112.463129,92.0835767 108.962939,95.5837667 108.962939,99.9014699 C108.962939,104.219173 112.463129,107.719363 116.780832,107.719363 C121.098535,107.719363 124.598725,104.219173 124.598725,99.9014699 Z" id="Oval-Copy"></path>
            <circle id="Oval-Copy" cx="100.296999" cy="164.380609" r="15.3376177"></circle>
            <path d="M100.345969,20.2825863 C91.8475366,20.2825863 84.9581958,27.171927 84.9581958,35.6703595 C84.9581958,44.1687921 91.8475366,51.0581328 100.345969,51.0581328 C108.844402,51.0581328 115.733742,44.1687921 115.733742,35.6703595 C115.733742,27.171927 108.844402,20.2825863 100.345969,20.2825863 Z" id="Oval-Copy"></path>
            <path d="M31.5756428,60.3374984 C27.3579894,67.6426884 29.8609323,76.9837985 37.1661223,81.2014519 C44.4713122,85.4191053 53.8124224,82.9161624 58.0300758,75.6109724 C62.2477292,68.3057825 59.7447862,58.9646723 52.4395963,54.7470189 C45.1344063,50.5293655 35.7932962,53.0323085 31.5756428,60.3374984 Z" id="Oval-Copy"></path>
            <path d="M30.9538851,139.282738 C35.1812401,146.604732 44.5438369,149.113432 51.8658305,144.886077 C59.187824,140.658722 61.6965243,131.296125 57.4691693,123.974132 C53.2418144,116.652138 43.8792175,114.143438 36.557224,118.370793 C29.2352305,122.598148 26.7265302,131.960745 30.9538851,139.282738 Z" id="Oval-Copy"></path>
            <path d="M168.693252,138.996609 C172.938785,131.643131 170.419297,122.240275 163.065819,117.994742 C155.712341,113.74921 146.309485,116.268697 142.063953,123.622176 C137.81842,130.975654 140.337908,140.37851 147.691386,144.624042 C155.044864,148.869575 164.44772,146.350087 168.693252,138.996609 Z" id="Oval-Copy"></path>
            <path d="M168.984208,59.8760921 C164.747433,52.5377836 155.363975,50.0234934 148.025666,54.2602678 C140.687358,58.4970422 138.173067,67.8805009 142.409842,75.2188095 C146.646616,82.557118 156.030075,85.0714082 163.368383,80.8346338 C170.706692,76.5978594 173.220982,67.2144007 168.984208,59.8760921 Z" id="Oval-Copy"></path>
            <circle id="Oval-Copy" cx="99.7499803" cy="66.8130658" r="11.8455597"></circle>
            <circle id="Oval-Copy" cx="71.0256295" cy="83.119981" r="11.8302133"></circle>
            <circle id="Oval-Copy" cx="70.7159277" cy="116.457964" r="11.846542"></circle>
            <circle id="Oval-Copy" cx="100.060861" cy="133.433736" r="11.8171718"></circle>
            <circle id="Oval-Copy" cx="128.938105" cy="116.29087" r="11.8235415"></circle>
            <circle id="Oval-Copy" cx="129.104875" cy="82.8964586" r="11.8385025"></circle>
            <path d="M132.13533,43.3015102 C125.121074,39.2518275 116.15198,41.6550891 112.102297,48.6693453 C108.052614,55.6836015 110.455876,64.6526961 117.470132,68.7023788 C124.484388,72.7520615 133.453483,70.3487998 137.503166,63.3345436 C141.552848,56.3202875 139.149587,47.3511929 132.13533,43.3015102 Z" id="Oval-Copy"></path>
            <path d="M66.9984407,42.903268 C59.9666894,46.9630515 57.5574335,55.9545169 61.617217,62.9862682 C65.6770005,70.0180195 74.668466,72.4272754 81.7002172,68.3674919 C88.7319685,64.3077084 91.1412244,55.3162429 87.0814409,48.2844917 C83.0216574,41.2527404 74.030192,38.8434845 66.9984407,42.903268 Z" id="Oval-Copy"></path>
            <path d="M33.7852093,99.5008879 C33.7852093,107.615107 40.3630837,114.192982 48.4773031,114.192982 C56.5915224,114.192982 63.1693969,107.615107 63.1693969,99.5008879 C63.1693969,91.3866685 56.5915224,84.8087941 48.4773031,84.8087941 C40.3630837,84.8087941 33.7852093,91.3866685 33.7852093,99.5008879 Z" id="Oval-Copy"></path>
            <path d="M66.9960961,157.075731 C74.0130974,161.126998 82.9857022,158.722796 87.0369698,151.705795 C91.0882374,144.688793 88.6840352,135.716189 81.6670338,131.664921 C74.6500325,127.613653 65.6774277,130.017856 61.6261601,137.034857 C57.5748925,144.051858 59.9790947,153.024463 66.9960961,157.075731 Z" id="Oval-Copy"></path>
            <path d="M132.969609,156.467838 C139.994688,152.411906 142.401659,143.428972 138.345727,136.403892 C134.289795,129.378812 125.306861,126.971842 118.281781,131.027774 C111.256701,135.083706 108.849731,144.06664 112.905663,151.09172 C116.961595,158.1168 125.944529,160.52377 132.969609,156.467838 Z" id="Oval-Copy"></path>
            <path d="M165.96909,99.6984837 C165.96909,91.6255422 159.424678,85.08113 151.351736,85.08113 C143.278795,85.08113 136.734383,91.6255422 136.734383,99.6984837 C136.734383,107.771425 143.278795,114.315837 151.351736,114.315837 C159.424678,114.315837 165.96909,107.771425 165.96909,99.6984837 Z" id="Oval-Copy"></path>
        </g>
    </g>
</svg>