<?xml version="1.0" encoding="utf-8"?>
<!-- Generator: Adobe Illustrator 18.0.0, SVG Export Plug-In . SVG Version: 6.00 Build 0)  -->
<!DOCTYPE svg PUBLIC "-//W3C//DTD SVG 1.1//EN" "http://www.w3.org/Graphics/SVG/1.1/DTD/svg11.dtd">
<svg version="1.1" id="Layer_1" xmlns="http://www.w3.org/2000/svg" xmlns:xlink="http://www.w3.org/1999/xlink" x="0px" y="0px"
	 viewBox="0 0 120 120" enable-background="new 0 0 120 120" xml:space="preserve">
<linearGradient id="SVGID_1_" gradientUnits="userSpaceOnUse" x1="60.05" y1="-1.339686e-09" x2="60.05" y2="120" gradientTransform="matrix(1 0 0 -1 0 120)">
	<stop  offset="0" style="stop-color:#52EDC7"/>
	<stop  offset="1" style="stop-color:#5AC8FB"/>
</linearGradient>
<path fill="url(#SVGID_1_)" d="M89.8,0H30.2C13.6,0,0,13.6,0,30.2v59.7C0,106.4,13.6,120,30.2,120h59.7c16.6,0,30.2-13.6,30.2-30.2
	V30.2C120,13.6,106.4,0,89.8,0z"/>
<g id="guides">
</g>
<path fill="#FFFFFF" d="M72.7,30.6H48.3c-5.4,0-9.8,4.4-9.8,9.8v39.1c0,5.4,4.4,9.8,9.8,9.8h24.4c5.4,0,9.8-4.4,9.8-9.8V40.4
	C82.5,35,78.1,30.6,72.7,30.6z M49,82.2c-2,0-3.7-1.6-3.7-3.7c0-2,1.6-3.7,3.7-3.7c2,0,3.7,1.6,3.7,3.7C52.6,80.5,51,82.2,49,82.2z
	 M49,73.1c-2,0-3.7-1.6-3.7-3.7s1.6-3.7,3.7-3.7c2,0,3.7,1.6,3.7,3.7S51,73.1,49,73.1z M49,63.9c-2,0-3.7-1.6-3.7-3.7
	c0-2,1.6-3.7,3.7-3.7c2,0,3.7,1.6,3.7,3.7C52.6,62.2,51,63.9,49,63.9z M60.5,82.2c-2,0-3.7-1.6-3.7-3.7c0-2,1.6-3.7,3.7-3.7
	c2,0,3.7,1.6,3.7,3.7C64.2,80.5,62.5,82.2,60.5,82.2z M60.5,73.1c-2,0-3.7-1.6-3.7-3.7s1.6-3.7,3.7-3.7c2,0,3.7,1.6,3.7,3.7
	S62.5,73.1,60.5,73.1z M60.5,63.9c-2,0-3.7-1.6-3.7-3.7c0-2,1.6-3.7,3.7-3.7c2,0,3.7,1.6,3.7,3.7C64.2,62.2,62.5,63.9,60.5,63.9z
	 M72,82.2c-2,0-3.7-1.6-3.7-3.7c0-2,1.6-3.7,3.7-3.7c2,0,3.7,1.6,3.7,3.7C75.7,80.5,74.1,82.2,72,82.2z M72,73.1
	c-2,0-3.7-1.6-3.7-3.7s1.6-3.7,3.7-3.7c2,0,3.7,1.6,3.7,3.7S74.1,73.1,72,73.1z M72,63.9c-2,0-3.7-1.6-3.7-3.7c0-2,1.6-3.7,3.7-3.7
	c2,0,3.7,1.6,3.7,3.7C75.7,62.2,74.1,63.9,72,63.9z M72,48.6H49c-2.7,0-4.9-2.5-4.9-5.5s2.2-5.5,4.9-5.5h23c2.7,0,4.9,2.5,4.9,5.5
	C77,46.2,74.8,48.6,72,48.6z"/>
</svg>
