<?xml version="1.0" encoding="utf-8"?>
<!-- Generator: Adobe Illustrator 18.0.0, SVG Export Plug-In . SVG Version: 6.00 Build 0)  -->
<!DOCTYPE svg PUBLIC "-//W3C//DTD SVG 1.1//EN" "http://www.w3.org/Graphics/SVG/1.1/DTD/svg11.dtd">
<svg version="1.1" id="Layer_1" xmlns="http://www.w3.org/2000/svg" xmlns:xlink="http://www.w3.org/1999/xlink" x="0px" y="0px"
	 viewBox="0 0 120 120" enable-background="new 0 0 120 120" xml:space="preserve">
<g>
	<path fill="#231F20" d="M119.1,29.6l-38-19c-0.2-0.1-0.4-0.1-0.5-0.1c0,0,0,0,0,0c-0.5,0-0.9,0.2-1.2,0.6L55.9,49.2l26.2,42.5
		l37.4-60.8C119.8,30.5,119.6,29.9,119.1,29.6z"/>
	<polygon fill="#231F20" points="43.5,35.8 43.5,76.9 80,95.1 	"/>
	<path fill="#231F20" d="M83.2,96.7l33.5,16.7c1.8,0.9,3.3,0,3.3-2.1V36.8L83.2,96.7z"/>
	<path fill="#231F20" d="M39.5,29.8L4.4,12.3l-2.2-1.1C1.9,11,1.6,11,1.3,11c-0.4,0-0.7,0.2-1,0.4C0.1,11.7,0,12.1,0,12.6v80
		c0,1.4,1,3,2.2,3.6l34.5,17.2c0.5,0.2,0.9,0.4,1.3,0.4c1.2,0,2-0.9,2-2.4V30.6C40,30.3,39.8,30,39.5,29.8z"/>
</g>
</svg>
