<?xml version="1.0" encoding="UTF-8"?>
<svg width="520px" height="520px" viewBox="0 0 520 520" version="1.1" xmlns="http://www.w3.org/2000/svg" xmlns:xlink="http://www.w3.org/1999/xlink">
    <!-- Generator: Sketch 53.2 (72643) - https://sketchapp.com -->
    <title>Custom Preset 2</title>
    <desc>Created with Sketch.</desc>
    <defs>
        <linearGradient x1="56.2799552%" y1="102.716001%" x2="56.2799552%" y2="1.27704964%" id="linearGradient-1">
            <stop stop-color="#1400E2" offset="0%"></stop>
            <stop stop-color="#0185FF" offset="100%"></stop>
        </linearGradient>
    </defs>
    <g id="Custom-Preset-2" stroke="none" stroke-width="1" fill="none" fill-rule="evenodd">
        <rect id="Rectangle-Copy" fill="url(#linearGradient-1)" x="0" y="0" width="520" height="520" rx="148"></rect>
        <g id="Group-Copy" transform="translate(138.204499, 120.329499)" fill="#FFFFFF">
            <path d="M111.7364,279.341001 L111.7364,216.489276 L144.908144,216.489276 C188.298206,216.489276 223.472801,181.314681 223.472801,137.924619 C223.472801,94.5345576 188.298206,59.3599627 144.908144,59.3599627 L55.8682002,59.3599627 L55.8682002,279.341001 L0,279.341001 L0,0 L139.670501,0 C216.808388,0 279.341001,62.5326131 279.341001,139.670501 C279.341001,216.808388 216.808388,279.341001 139.670501,279.341001 L111.7364,279.341001 Z M111.7364,115.228163 L141.416382,115.228163 C155.879736,115.228163 167.604601,126.953028 167.604601,141.416382 C167.604601,155.879736 155.879736,167.604601 141.416382,167.604601 L111.7364,167.604601 L111.7364,115.228163 Z" id="Combined-Shape"></path>
        </g>
    </g>
</svg>