<?xml version="1.0" encoding="UTF-8"?>
<svg width="600px" height="600px" viewBox="0 0 600 600" version="1.1" xmlns="http://www.w3.org/2000/svg" xmlns:xlink="http://www.w3.org/1999/xlink">
    <!-- Generator: Sketch 47.1 (45422) - http://www.bohemiancoding.com/sketch -->
    <title>Artboard</title>
    <desc>Created with Sketch.</desc>
    <defs>
        <linearGradient x1="50%" y1="98.8161671%" x2="50%" y2="6.07153217e-15%" id="linearGradient-1">
            <stop stop-color="#DA4EC6" offset="0%"></stop>
            <stop stop-color="#15CECE" offset="98.1026786%"></stop>
        </linearGradient>
        <linearGradient x1="50%" y1="100%" x2="50%" y2="0%" id="linearGradient-2">
            <stop stop-color="#FFDC95" offset="0%"></stop>
            <stop stop-color="#FFB65C" offset="100%"></stop>
        </linearGradient>
        <linearGradient x1="50%" y1="100%" x2="50%" y2="0%" id="linearGradient-3">
            <stop stop-color="#15CECE" offset="0%"></stop>
            <stop stop-color="#DA4EC6" offset="100%"></stop>
        </linearGradient>
        <linearGradient x1="50%" y1="0%" x2="50%" y2="96.6916454%" id="linearGradient-4">
            <stop stop-color="#FFFFFF" stop-opacity="0.45142663" offset="0%"></stop>
            <stop stop-color="#FFFFFF" stop-opacity="0" offset="100%"></stop>
        </linearGradient>
    </defs>
    <g id="Page-1" stroke="none" stroke-width="1" fill="none" fill-rule="evenodd">
        <g id="Artboard">
            <rect id="Rectangle-3" fill="url(#linearGradient-1)" x="0" y="0" width="600" height="600" rx="100"></rect>
            <rect id="Rectangle-2" fill="url(#linearGradient-2)" x="280" y="400" width="40" height="120" rx="20"></rect>
            <path d="M360,420 L240,420 C217.90861,420 200,402.09139 200,380 L200,220 C200,164.771525 244.771525,120 300,120 C327.614237,120 352.614237,131.192881 370.710678,149.289322 C388.807119,167.385763 400,192.385763 400,220 L400,380 C400,402.09139 382.09139,420 360,420 Z" id="Combined-Shape" fill="url(#linearGradient-3)"></path>
            <path d="M300,130 C250.294373,130 210,170.294373 210,220 L210,380 C210,385.522847 214.477153,390 220,390 C225.522847,390 230,385.522847 230,380 L230,220 C230,181.340068 261.340068,150 300,150 C305.522847,150 310,145.522847 310,140 C310,134.477153 305.522847,130 300,130 Z" id="Combined-Shape" fill="url(#linearGradient-4)" fill-rule="nonzero"></path>
        </g>
    </g>
</svg>