<?xml version="1.0" encoding="UTF-8"?>
<svg width="1024px" height="1024px" viewBox="0 0 1024 1024" version="1.1" xmlns="http://www.w3.org/2000/svg" xmlns:xlink="http://www.w3.org/1999/xlink">
    <!-- Generator: Sketch 53.2 (72643) - https://sketchapp.com -->
    <title>Artboard</title>
    <desc>Created with Sketch.</desc>
    <defs>
        <linearGradient x1="50%" y1="0.168918919%" x2="50%" y2="100%" id="linearGradient-1">
            <stop stop-color="#FF7800" offset="0%"></stop>
            <stop stop-color="#FF1B67" offset="100%"></stop>
        </linearGradient>
        <linearGradient x1="50%" y1="0%" x2="50%" y2="100%" id="linearGradient-2">
            <stop stop-color="#FF8B00" offset="0%"></stop>
            <stop stop-color="#FEF1E2" offset="100%"></stop>
        </linearGradient>
    </defs>
    <g id="Artboard" stroke="none" stroke-width="1" fill="none" fill-rule="evenodd">
        <rect id="Rectangle" fill="#FFFFFF" x="97.1271778" y="97.1271778" width="829.745644" height="829.745644" rx="188"></rect>
        <g id="Group-2-Copy-2" transform="translate(242.132678, 222.000000)" fill-rule="nonzero">
            <path d="M217.046235,567.177262 C195.608959,504.323801 127.313211,414.914454 12.2452235,385.00933 C20.954656,339.837125 40.9259883,298.252172 72.1592204,268.449057 C-12.3136515,203.759464 -25.2656986,80.1096868 47.3588959,1.13686838e-13 C132.883798,25.7398272 181.794591,94.2206889 192.211418,164.027644 C215.836078,155.964835 240.801709,152.732065 269.425552,153.263328 C298.049402,152.732064 323.015035,155.964834 346.639698,164.027644 C357.056524,94.2206889 405.967317,25.7398272 491.492219,1.13686838e-13 C564.116814,80.1096868 551.164767,203.759464 466.691895,268.449057 C497.925127,298.252172 517.896459,339.837125 526.605892,385.00933 C411.537905,414.914454 343.242157,504.323801 321.80488,567.177262 C307.5766,575.59286 288.569063,579.673149 269.425558,579.656149 C250.282046,579.673149 231.274516,575.59286 217.046235,567.177262 Z" id="Path" fill="url(#linearGradient-1)"></path>
            <path d="M118.417566,158.19623 C118.417566,202.892403 99.4714591,243.15126 69.1576881,271.356263 C70.1394409,270.387194 71.0695225,269.401124 72.0684991,268.449057 C-5.7483293,208.77482 -22.7998255,98.9470237 31.9544235,19.3813759 C83.1605835,44.5091596 118.417566,97.2299025 118.417566,158.19623 Z M420.43355,158.19623 C420.43355,97.2299025 455.690532,44.5091596 506.896692,19.3813759 C561.650941,98.9470237 544.599445,208.77482 466.782616,268.449057 C467.781593,269.401124 468.711674,270.387194 469.693427,271.356263 C439.379657,243.15126 420.43355,202.892403 420.43355,158.19623 Z M467.789149,269.571136 C498.341241,299.306247 517.944926,340.381163 526.56572,385.00933 C411.529851,414.914454 343.253166,504.323801 321.821873,567.177262 C314.252816,571.64858 305.390641,574.895811 295.873285,576.952956 C299.028496,448.695851 366.54655,336.181865 467.789149,269.571136 Z M71.0619661,269.571136 C172.304565,336.181865 239.82262,448.695851 242.97783,576.952956 C233.460475,574.895811 224.598298,571.64858 217.029242,567.177262 C195.597949,504.323801 127.321265,414.914454 12.2853959,385.00933 C20.9061895,340.381163 40.5098739,299.306247 71.0619661,269.571136 Z" id="Shape" fill="url(#linearGradient-2)"></path>
        </g>
    </g>
</svg>