<?xml version="1.0" encoding="UTF-8"?>
<svg width="1024px" height="1024px" viewBox="0 0 1024 1024" version="1.1" xmlns="http://www.w3.org/2000/svg" xmlns:xlink="http://www.w3.org/1999/xlink">
    <!-- Generator: Sketch 53.2 (72643) - https://sketchapp.com -->
    <title>Artboard</title>
    <desc>Created with Sketch.</desc>
    <defs>
        <linearGradient x1="50%" y1="0.168918919%" x2="50%" y2="100%" id="linearGradient-1">
            <stop stop-color="#FF7800" offset="0%"></stop>
            <stop stop-color="#FF1B67" offset="100%"></stop>
        </linearGradient>
        <linearGradient x1="50%" y1="0%" x2="50%" y2="100%" id="linearGradient-2">
            <stop stop-color="#FF8B00" offset="0%"></stop>
            <stop stop-color="#FEF1E2" offset="100%"></stop>
        </linearGradient>
    </defs>
    <g id="Artboard" stroke="none" stroke-width="1" fill="none" fill-rule="evenodd">
        <g id="Group">
            <rect id="Rectangle" fill="#FFFFFF" x="0" y="0" width="1024" height="1024" rx="298"></rect>
            <g id="Group-2-Copy-2" transform="translate(166.932166, 141.164114)" fill-rule="nonzero">
                <path d="M277.542616,725.264187 C250.130218,644.891845 162.798685,530.561808 15.6582829,492.321356 C26.7952588,434.558492 52.3331163,381.382741 92.2718554,343.272729 C-15.7457836,260.55248 -32.3079001,102.438322 60.559041,1.13686838e-13 C169.921938,32.9141806 232.46543,120.482424 245.785695,209.746377 C275.995157,199.436256 307.919353,195.302429 344.521399,195.981769 C381.123454,195.302428 413.047652,199.436254 443.257118,209.746377 C456.577383,120.482424 519.120874,32.9141806 628.483771,1.13686838e-13 C721.350713,102.438322 704.788597,260.55248 596.770957,343.272729 C636.709696,381.382741 662.247554,434.558492 673.38453,492.321356 C526.244128,530.561808 438.912595,644.891845 411.500197,725.264187 C393.306128,736.025429 369.0007,741.243 344.521406,741.221261 C320.042105,741.243 295.736685,736.025429 277.542616,725.264187 Z" id="Path" fill="url(#linearGradient-1)"></path>
                <path d="M151.423594,202.289598 C151.423594,259.443746 127.196719,310.923785 88.4337187,346.990249 C89.6891113,345.751076 90.8784306,344.490162 92.1558476,343.272729 C-7.35053687,266.965745 -29.1547247,126.52611 40.8609451,24.783465 C106.339582,56.9150098 151.423594,124.330383 151.423594,202.289598 Z M537.619218,202.289598 C537.619218,124.330383 582.703231,56.9150098 648.181868,24.783465 C718.197537,126.52611 696.393349,266.965745 596.886965,343.272729 C598.164383,344.490162 599.353701,345.751076 600.609094,346.990249 C561.846094,310.923785 537.619218,259.443746 537.619218,202.289598 Z M598.174044,344.707562 C637.241792,382.730614 662.309529,435.254168 673.333161,492.321356 C526.23383,530.561808 438.926672,644.891845 411.521926,725.264187 C401.843178,730.981776 390.510886,735.134094 378.340797,737.764619 C382.375446,573.758952 468.712523,429.884417 598.174044,344.707562 Z M90.868768,344.707562 C220.33029,429.884417 306.667367,573.758952 310.702015,737.764619 C298.531927,735.134094 287.199634,730.981776 277.520887,725.264187 C250.11614,644.891845 162.808983,530.561808 15.7096524,492.321356 C26.7332834,435.254168 51.8010201,382.730614 90.868768,344.707562 Z" id="Shape" fill="url(#linearGradient-2)"></path>
            </g>
        </g>
    </g>
</svg>