<?xml version="1.0" encoding="UTF-8"?>
<svg width="1024px" height="1024px" viewBox="0 0 1024 1024" version="1.1" xmlns="http://www.w3.org/2000/svg" xmlns:xlink="http://www.w3.org/1999/xlink">
    <!-- Generator: Sketch 47.1 (45422) - http://www.bohemiancoding.com/sketch -->
    <title>Artboard</title>
    <desc>Created with Sketch.</desc>
    <defs></defs>
    <g id="Page-1" stroke="none" stroke-width="1" fill="none" fill-rule="evenodd">
        <g id="Artboard">
            <rect id="Rectangle" x="0" y="0" width="1024" height="1024"></rect>
            <path d="M207.44,398.48 C190.64,398.48 178.64,411.44 178.64,425.6 C178.64,455.36 213.68,481.76 213.68,510.32 C213.68,538.88 183.92,560.48 155.36,560.48 C114.32,560.48 91.04,535.76 91.04,515.6 C91.04,495.44 124.88,478.4 140.24,478.4 C143.12,478.4 144.32,480.08 144.32,482.48 C144.32,484.64 142.64,485.84 139.28,488.24 C131.6,494.48 123.2,500.96 123.2,515.12 C123.2,527.84 134.48,543.2 151.76,543.2 C169.76,543.2 182.24,531.92 182.24,513.68 C182.24,489.68 147.92,462.8 147.92,431.84 C147.92,401.84 181.76,384.32 210.56,384.32 C228.32,384.32 243.92,390.32 243.92,404 C243.92,421.04 218.72,439.28 210.08,439.28 C207.92,439.28 206,437.36 206,435.68 C206,434 206.72,433.04 209.12,429.92 C213.44,424.4 219.2,416 219.2,408.32 C219.2,402.08 214.4,398.48 207.44,398.48 Z M311.12,535.28 C311.12,540.8 314,544.4 318.8,544.4 C331.76,544.4 344.48,523.76 344.48,523.76 C344.48,523.76 346.4,520.4 349.28,520.4 C351.92,520.4 354.32,522.56 354.32,525.2 C354.32,527.36 352.16,530.96 352.16,530.96 C352.16,530.96 334.64,560.48 310.88,560.48 C292.64,560.48 280.4,549.68 280.4,536.24 C280.4,516.56 292.64,499.28 292.64,484.88 C292.64,482.72 290.48,481.04 287.84,481.04 C273.44,481.04 250.88,509.6 250.88,555.68 C250.88,559.76 248.96,560.48 245.6,560.48 C232.88,560.48 223.04,554.96 223.04,547.28 C223.04,520.64 236.96,484.88 242.48,471.2 C243.68,468.32 246.08,466.64 248.96,466.64 C252.56,466.64 258.32,468.08 265.76,479.6 C265.76,479.6 283.04,464.24 303.44,464.24 C314,464.24 323.84,475.52 323.84,484.88 C323.84,499.28 311.12,518 311.12,535.28 Z M666.56,530.96 C666.56,530.96 646.64,560.48 612.56,560.48 C591.92,560.48 569.12,550.88 569.12,524 C569.12,491.84 598.4,464.24 622.88,464.24 C639.92,464.24 650.24,476.48 650.24,487.52 C650.24,495.68 642.08,505.76 635.84,505.76 C629.36,505.76 623.6,500.96 623.6,495.68 C623.6,487.52 633.2,486.08 633.2,481.04 C633.2,478.4 630.08,476 626.24,476 C612.32,476 598.64,499.28 598.64,521.12 C598.64,537.68 609.2,545.6 622.4,545.6 C644.24,545.6 658.88,523.76 658.88,523.76 C658.88,523.76 661.28,520.4 664.16,520.4 C667.04,520.4 669.2,522.56 669.2,525.2 C669.2,527.36 666.56,530.96 666.56,530.96 Z M872.96,534.08 C872.96,512.48 885.2,498.8 885.2,487.76 C885.2,484.64 883.28,483.2 880.88,483.2 C875.6,483.2 864.8,493.52 856.88,513.2 C849.92,530 846.8,544.4 846.8,555.68 C846.8,559.76 844.88,560.48 841.52,560.48 C828.8,560.48 818.96,554.96 818.96,547.28 C818.96,527.12 833.12,500 833.12,488.24 C833.12,484.88 831.92,483.2 828.8,483.2 C817.04,483.2 796.64,509.36 796.64,555.68 C796.64,559.76 794.72,560.48 791.36,560.48 C778.64,560.48 768.8,554.96 768.8,547.28 C768.8,519.2 782.72,484.88 788.24,471.2 C789.44,468.32 791.84,466.64 794.72,466.64 C798.32,466.64 804.08,468.08 811.52,479.6 C811.52,479.6 828.8,464.24 844.88,464.24 C855.44,464.24 861.2,471.92 864.56,482 C864.56,482 883.04,464.24 900.56,464.24 C909.2,464.24 918.56,473.36 918.56,481.76 C918.56,494.72 903.68,515.84 903.68,535.28 C903.68,540.8 906.56,544.4 911.36,544.4 C924.32,544.4 937.04,523.76 937.04,523.76 C937.04,523.76 938.96,520.4 941.84,520.4 C944.48,520.4 946.88,522.56 946.88,525.2 C946.88,527.36 944.72,530.96 944.72,530.96 C944.72,530.96 927.2,560.48 903.44,560.48 C885.2,560.48 872.96,549.68 872.96,534.08 Z" id="Snapcam" fill="#000000"></path>
            <path d="M780.56,530.96 C780.56,530.96 763.04,560.48 739.28,560.48 C726.08,560.48 715.76,553.52 714.08,540.08 C714.08,540.08 698.24,560.48 680,560.48 C667.04,560.48 656,550.16 656,535.52 C656,500.96 684.8,464.24 711.2,464.24 C730.64,464.24 737.36,475.52 737.36,475.52 C744.56,475.52 754.4,478.4 754.4,486.8 C754.4,494 740.48,521.36 740.48,537.68 C740.48,541.52 743.12,544.4 747.2,544.4 C760.16,544.4 772.88,523.76 772.88,523.76 C772.88,523.76 774.8,520.4 777.68,520.4 C780.32,520.4 782.72,522.56 782.72,525.2 C782.72,527.36 780.56,530.96 780.56,530.96 Z M724.88,488.48 C724.88,481.52 721.04,478.16 716.24,478.16 C702.32,478.16 685.28,511.28 685.28,531.44 C685.28,538.4 687.2,542.24 692.24,542.24 C703.76,542.24 724.88,506.96 724.88,488.48 Z" id="Combined-Shape" fill="#000000"></path>
            <path d="M577.76,530.96 C577.76,530.96 564.08,551.6 536,551.6 C533.84,551.6 531.2,551.36 528.56,551.12 C521.12,556.88 512.48,560.48 502.88,560.48 C487.52,560.48 478.88,548.24 478.88,548.24 C473.36,562.4 465.92,598.16 465.92,616.88 C465.92,620.72 464.72,622.16 461.36,622.16 C452.24,622.16 439.52,618.08 439.52,605.12 C439.52,588.08 460.88,505.04 473.36,471.2 C474.56,468.32 476.96,466.64 480.08,466.64 C483.44,466.64 489.2,468.08 496.64,479.6 C496.64,479.6 513.68,464.24 527.84,464.24 C544.88,464.24 556.64,480.32 556.64,494.24 C556.64,507.68 550.4,525.92 539.6,539.84 C540.32,540.08 541.04,540.08 541.76,540.08 C558.08,540.08 570.08,523.76 570.08,523.76 C570.08,523.76 572,520.4 574.88,520.4 C577.52,520.4 579.92,522.56 579.92,525.2 C579.92,527.36 577.76,530.96 577.76,530.96 Z M485.12,528.8 C485.12,538.16 490.4,547.28 498.32,547.28 C500.96,547.28 503.6,546.08 506.24,543.68 C505.52,542.72 505.04,541.52 505.04,540.32 C505.04,535.28 512.72,528.8 516.8,528.56 C523.04,515.84 527.12,500 527.12,492.32 C527.12,483.68 524.24,480.56 518.96,480.56 C506.48,480.56 485.12,511.76 485.12,528.8 Z" id="Combined-Shape" fill="#000000"></path>
            <path d="M466.16,530.96 C466.16,530.96 448.64,560.48 424.88,560.48 C411.68,560.48 401.36,553.52 399.68,540.08 C399.68,540.08 383.84,560.48 365.6,560.48 C352.64,560.48 341.6,550.16 341.6,535.52 C341.6,500.96 370.4,464.24 396.8,464.24 C416.24,464.24 422.96,475.52 422.96,475.52 C430.16,475.52 440,478.4 440,486.8 C440,494 426.08,521.36 426.08,537.68 C426.08,541.52 428.72,544.4 432.8,544.4 C445.76,544.4 458.48,523.76 458.48,523.76 C458.48,523.76 460.4,520.4 463.28,520.4 C465.92,520.4 468.32,522.56 468.32,525.2 C468.32,527.36 466.16,530.96 466.16,530.96 Z M410.48,488.48 C410.48,481.52 406.64,478.16 401.84,478.16 C387.92,478.16 370.88,511.28 370.88,531.44 C370.88,538.4 372.8,542.24 377.84,542.24 C389.36,542.24 410.48,506.96 410.48,488.48 Z" id="Combined-Shape" fill="#000000"></path>
        </g>
    </g>
</svg>