<?xml version="1.0" encoding="utf-8"?>
<!-- Generator: Adobe Illustrator 18.0.0, SVG Export Plug-In . SVG Version: 6.00 Build 0)  -->
<!DOCTYPE svg PUBLIC "-//W3C//DTD SVG 1.1//EN" "http://www.w3.org/Graphics/SVG/1.1/DTD/svg11.dtd">
<svg version="1.1" xmlns="http://www.w3.org/2000/svg" xmlns:xlink="http://www.w3.org/1999/xlink" x="0px" y="0px"
	 viewBox="0 0 120 120" enable-background="new 0 0 120 120" xml:space="preserve">
<g id="bg">
	<linearGradient id="SVGID_1_" gradientUnits="userSpaceOnUse" x1="60" y1="120" x2="60" y2="-1.338776e-09">
		<stop  offset="0" style="stop-color:#C644FC"/>
		<stop  offset="1" style="stop-color:#5856D6"/>
	</linearGradient>
	<path fill="url(#SVGID_1_)" d="M89.8,0H30.2C13.6,0,0,13.6,0,30.2v59.7C0,106.4,13.6,120,30.2,120h59.7c16.6,0,30.2-13.6,30.2-30.2
		V30.2C120,13.6,106.4,0,89.8,0z"/>
</g>
<g id="guides">
</g>
<g id="Layer_3">
	<linearGradient id="SVGID_2_" gradientUnits="userSpaceOnUse" x1="242.0529" y1="400" x2="242.0529" y2="287.1102">
		<stop  offset="0" style="stop-color:#DA579E"/>
		<stop  offset="1" style="stop-color:#955AA3"/>
	</linearGradient>
	<path fill="url(#SVGID_2_)" d="M292.2,366.9c0,3.5-1.9,6.8-4.9,8.5L247,398.7c-3,1.8-6.8,1.8-9.8,0l-40.3-23.3
		c-3-1.8-4.9-5-4.9-8.5v-46.6c0-3.5,1.9-6.8,4.9-8.5l40.3-23.3c3-1.8,6.8-1.8,9.8,0l40.3,23.3c3,1.8,4.9,5,4.9,8.5V366.9z"/>
	<path fill="#FFFFFF" d="M258.5,356.1l-4.4-18.1c-0.3-1.5-1.7-2.7-3.2-2.7h-2.2V332h3.3v-5h-19.8v5h3.3v3.3h-2.1
		c-1.6,0-2.9,1.1-3.2,2.6l-4.4,18.1c-0.4,2,1.1,4,3.2,4h26.4C257.4,360,258.9,358.1,258.5,356.1z M235.1,345.2l0.8-3.3h12.4l0.8,3.3
		H235.1z"/>
	<path fill="#FFFFFF" d="M96.8,30c-5.6,0-10.1,4.5-10.1,10.1c0,2.3,0.8,4.5,2.2,6.2L76,59.8c-1.7-1.3-3.8-2.1-6.1-2.1
		c-4.5,0-8.2,2.9-9.5,7l-3.7-3.2c0.2-0.7,0.2-1.4,0.2-2.1c0-5.6-4.5-10.1-10.1-10.1c-5.6,0-10.1,4.5-10.1,10.1c0,2,0.6,3.8,1.6,5.4
		l-7.7,7.4c-1.8-1.5-4-2.4-6.4-2.4c-5.6,0-10.1,4.5-10.1,10.1S18.6,90,24.2,90c5.6,0,10.1-4.5,10.1-10.1c0-1.9-0.6-3.7-1.5-5.2
		l7.8-7.5c1.7,1.4,3.9,2.3,6.3,2.3c3.6,0,6.7-1.9,8.5-4.7l4.6,3.9c0.4,5.2,4.7,9.3,10,9.3c5.6,0,10.1-4.5,10.1-10.1
		c0-2.1-0.6-4-1.7-5.6l13-13.6c1.6,1,3.5,1.6,5.5,1.6c5.6,0,10.1-4.5,10.1-10.1C106.9,34.6,102.4,30,96.8,30z M24.2,86.6
		c-3.7,0-6.8-3-6.8-6.8c0-3.7,3-6.8,6.8-6.8c3.7,0,6.8,3,6.8,6.8C31,83.6,27.9,86.6,24.2,86.6z M46.8,66.2c-3.7,0-6.8-3-6.8-6.8
		c0-3.7,3-6.8,6.8-6.8c3.7,0,6.8,3,6.8,6.8S50.6,66.2,46.8,66.2z M69.9,74.6c-3.7,0-6.8-3-6.8-6.8c0-3.7,3-6.8,6.8-6.8
		c3.7,0,6.8,3,6.8,6.8C76.7,71.6,73.7,74.6,69.9,74.6z M96.8,46.9c-3.7,0-6.8-3-6.8-6.8c0-3.7,3-6.8,6.8-6.8c3.7,0,6.8,3,6.8,6.8
		C103.6,43.9,100.5,46.9,96.8,46.9z"/>
</g>
</svg>
