<?xml version="1.0" encoding="utf-8"?>
<!-- Generator: Adobe Illustrator 18.0.0, SVG Export Plug-In . SVG Version: 6.00 Build 0)  -->
<!DOCTYPE svg PUBLIC "-//W3C//DTD SVG 1.1//EN" "http://www.w3.org/Graphics/SVG/1.1/DTD/svg11.dtd">
<svg version="1.1" xmlns="http://www.w3.org/2000/svg" xmlns:xlink="http://www.w3.org/1999/xlink" x="0px" y="0px"
	 viewBox="0 0 120 120" enable-background="new 0 0 120 120" xml:space="preserve">
<g id="bg">
	<linearGradient id="SVGID_1_" gradientUnits="userSpaceOnUse" x1="60" y1="-1.339686e-09" x2="60" y2="120">
		<stop  offset="0" style="stop-color:#FB2B69"/>
		<stop  offset="1" style="stop-color:#FF5B37"/>
	</linearGradient>
	<path fill="url(#SVGID_1_)" d="M89.8,0H30.2C13.6,0,0,13.6,0,30.2v59.7C0,106.4,13.6,120,30.2,120h59.7c16.6,0,30.2-13.6,30.2-30.2
		V30.2C120,13.6,106.4,0,89.8,0z"/>
</g>
<g id="guides">
</g>
<g id="Layer_3">
	<linearGradient id="SVGID_2_" gradientUnits="userSpaceOnUse" x1="242.0529" y1="400" x2="242.0529" y2="287.1102">
		<stop  offset="0" style="stop-color:#DA579E"/>
		<stop  offset="1" style="stop-color:#955AA3"/>
	</linearGradient>
	<path fill="url(#SVGID_2_)" d="M292.2,366.9c0,3.5-1.9,6.8-4.9,8.5L247,398.7c-3,1.8-6.8,1.8-9.8,0l-40.3-23.3
		c-3-1.8-4.9-5-4.9-8.5v-46.6c0-3.5,1.9-6.8,4.9-8.5l40.3-23.3c3-1.8,6.8-1.8,9.8,0l40.3,23.3c3,1.8,4.9,5,4.9,8.5V366.9z"/>
	<path fill="#FFFFFF" d="M258.5,356.1l-4.4-18.1c-0.3-1.5-1.7-2.7-3.2-2.7h-2.2V332h3.3v-5h-19.8v5h3.3v3.3h-2.1
		c-1.6,0-2.9,1.1-3.2,2.6l-4.4,18.1c-0.4,2,1.1,4,3.2,4h26.4C257.4,360,258.9,358.1,258.5,356.1z M235.1,345.2l0.8-3.3h12.4l0.8,3.3
		H235.1z"/>
	<path fill="#FFFFFF" d="M30.1,69.6c-2.8,0-5.5-0.9-7.3-1.8l-1.3,5.5c1.6,0.9,4.9,1.8,8.3,1.8c8,0,11.8-4.2,11.8-9
		c0-4.1-2.4-6.8-7.6-8.7c-3.8-1.4-5.4-2.3-5.4-4.1c0-1.5,1.4-2.8,4.2-2.8c2.9,0,4.9,0.8,6.1,1.4l1.5-5.3c-1.7-0.8-4.2-1.5-7.4-1.5
		c-6.9,0-11,3.8-11,8.8c0,4.2,3.2,6.9,8,8.6c3.5,1.3,4.9,2.3,4.9,4.1C34.8,68.4,33.2,69.6,30.1,69.6z"/>
	<path fill="#FFFFFF" d="M60.1,74.6l9.8-29.2h-7l-3.7,12.5c-1,3.3-1.9,6.8-2.6,10.3h-0.1c-0.7-3.6-1.6-7-2.6-10.4l-3.5-12.3h-7.2
		l9.3,29.1H60.1z"/>
	<path fill="#FFFFFF" d="M86.9,74.9c3.9,0,7.7-0.9,9.7-1.6V57.9H85.8V63h4.5v6.1c-0.5,0.3-1.7,0.4-3.2,0.4c-5.4,0-9.2-3.5-9.2-9.6
		c0-6.3,4.2-9.4,9.6-9.4c3.2,0,5.2,0.6,6.8,1.3l1.4-5.3c-1.4-0.7-4.3-1.4-8.1-1.4C78,45.1,71,50.7,71,60.4c0,4.3,1.4,8.1,4.1,10.6
		C77.7,73.6,81.6,74.9,86.9,74.9z"/>
</g>
</svg>
