<?xml version="1.0" encoding="utf-8"?>
<!-- Generator: Adobe Illustrator 18.0.0, SVG Export Plug-In . SVG Version: 6.00 Build 0)  -->
<!DOCTYPE svg PUBLIC "-//W3C//DTD SVG 1.1//EN" "http://www.w3.org/Graphics/SVG/1.1/DTD/svg11.dtd">
<svg version="1.1" id="Layer_1" xmlns="http://www.w3.org/2000/svg" xmlns:xlink="http://www.w3.org/1999/xlink" x="0px" y="0px"
	 viewBox="0 0 642 200" enable-background="new 0 0 642 200" xml:space="preserve">
<path fill="#CB3349" d="M48.2,87.3c0,0-31.4,22.1-32.6,30.5l2.4-0.5c0,0,37.6-24.9,67.3-27.9l0.7-3.8L48.2,87.3"/>
<path fill="#CB3349" d="M97.4,84.1l-24.7,17.5l1.3,1.1c1-0.8,43.9-13.9,43.9-13.9l9-5.7C120.9,83.9,97.4,84.1,97.4,84.1"/>
<path fill="#CB3349" d="M118.9,105.3c17.5,0,43.9-17.2,43.9-17.2l-8.5-1.6c-0.4,0.4-13.7-0.5-13.7-0.5l-6.3-1.8l-15.1,17.2l-1.2,3
	C119,104,118.9,105.3,118.9,105.3"/>
<path fill="#CB3349" d="M176.2,160.1l-5.4,1.5l-25-0.5L130,148.9l-18.9,4.7l-21.9-1.9l-12.3,13.4l-23,6.9l-11.5-3.6
	c-0.4-0.3-0.6-0.5-0.6-0.5l5.2,12.6c0,0,11.7,12.5,18.2,14c6.5,1.5,18.3-0.1,27.2-1.5c8.8-1.4,15.9-4.5,18.7-9.7
	c2.8-5.2,3.3-6.6,3.3-6.6s8.4,11.9,15.7,13.3c7.3,1.4,28.8-6,28.8-6s13.2-3.6,15.5-8.1c2.3-4.5,8.4-19.4,8.4-19.4L176.2,160.1
	 M44.8,170.4c-0.1-0.1-0.2-0.1-0.4-0.2c-0.9-0.7-1.6-1.4-2-1.8L44.8,170.4z"/>
<path fill="#F4EDAE" d="M197.4,70.7c-0.1-0.7-0.1-1.4-0.2-2c-0.1-0.5-0.1-1-0.2-1.4c-1.8-1.5-3.9-2.9-6-4.1
	c-2.3-1.4-4.7-2.6-7.2-3.7c-2.5-1.2-5-2.2-7.5-3.2c-1.3-0.5-2.5-1-3.8-1.5c-1.3-0.5-2.6-1-3.9-1.4c2.7,0.4,5.4,1.1,8.1,1.8
	c1.7,0.4,3.5,1,5.2,1.5c-12.2-31.9-41.4-52.7-73.3-52.7c-31.9,0-61.1,20.8-73.3,52.7c1.7-0.5,3.4-1,5.2-1.5c2.7-0.7,5.4-1.3,8.1-1.8
	c-1.3,0.5-2.6,0.9-3.9,1.4c-1.3,0.5-2.6,1-3.8,1.5c-2.5,1-5.1,2.1-7.5,3.2c-2.5,1.1-4.9,2.3-7.2,3.7c-2.1,1.2-4.2,2.6-6,4.1
	c-0.1,0.5-0.2,1-0.2,1.4c-0.1,0.7-0.2,1.3-0.2,2c-0.1,1.4-0.2,2.7-0.2,4.1c0,2.7,0.2,5.5,0.5,8.2c0.4,2.7,0.9,5.4,1.6,8
	c0.4,1.3,0.8,2.6,1.2,3.8c0.2,0.6,0.5,1.2,0.8,1.8c0.1,0.3,0.3,0.6,0.4,0.9l0.2,0.3c0.2,0.1,0.4,0.2,0.6,0.3l1.2,0.6
	c0.7,0.3,1.6,0.8,2.4,1.1l0.1-0.1l-2.3-8.6c0.5-0.1,4.8-1.2,12.1-2.6c-0.6-0.1-1.2-0.2-1.8-0.4c-1.7-0.4-3.3-0.9-4.9-1.6
	c-0.8-0.3-1.6-0.7-2.3-1.1c-0.7-0.4-1.5-0.9-2.1-1.6c8.1,2.6,24.8,1.4,39.7-0.1c13.6-1.4,27.3-2.3,41-2.3c13.7,0,27.4,0.9,41,2.3
	c14.9,1.5,31.6,2.7,39.7,0.1c-0.6,0.6-1.3,1.1-2.1,1.6c-0.7,0.4-1.5,0.8-2.3,1.1c-1.6,0.7-3.3,1.2-4.9,1.6c-0.2,0.1-0.5,0.1-0.7,0.2
	c8.1,1.5,12.8,2.7,13.3,2.9l-2.2,8.2c0.4-0.2,0.9-0.4,1.3-0.6l1.2-0.6c0.2-0.1,0.4-0.2,0.6-0.3l0.2-0.3c0.1-0.3,0.3-0.6,0.4-0.9
	c0.3-0.6,0.5-1.2,0.8-1.8c0.5-1.2,0.9-2.5,1.3-3.8c0.7-2.6,1.2-5.3,1.6-8c0.3-2.7,0.5-5.4,0.5-8.2C197.6,73.4,197.6,72,197.4,70.7"
	/>
<path fill="#E6CCAD" d="M117.7,184.2c-1.1,0.2-2.1,0.3-3.2,0.4c-0.7,0-1.4,0.1-2.1,0.1l-0.2,0c0.8-1.9,1.5-3.3,1.9-4.4
	C115.1,181.4,116.4,182.7,117.7,184.2"/>
<path fill="#E6CCAD" d="M120.1,186.5c3.3,3.3,7.5,5.2,12,5.5c-7.6,3.1-14.8,4.3-20.4,4.7c-5.5,0.4-11.1-0.3-16.6-1.8
	c0.5-0.1,0.8-0.1,1.2-0.2c0.5-0.1,10.3-1.3,14.7-7.9l0.4,0l1.1,0c0.7,0,1.4-0.1,2.1-0.1c1.7-0.1,3.3-0.4,4.9-0.7
	C119.7,186.2,119.9,186.4,120.1,186.5"/>
<path fill="#656C67" d="M129.5,87.8c-0.3,0.4-0.7,0.9-1.1,1.4c-1.9,2.5-4.7,5.6-7.9,8.7c-3.7-0.1-7.6-0.2-11.5-0.2
	c-6.5,0-12.8,0.2-18.7,0.5c8.4-3.5,18.4-6.9,29.3-8.9C122.9,88.6,126.2,88.1,129.5,87.8"/>
<path fill="#656C67" d="M80.5,91.5c-3,2.1-6.4,4.8-9.6,8c-8.4,0.8-15.7,1.9-21.7,2.8C58.4,98.1,69,94.2,80.5,91.5"/>
<path fill="#656C67" d="M183,108.9l-3.4,23.9l-16.3,11.4l-42.6-4.8l-6.4-21.1c-0.2-0.5-0.6-0.9-1.1-1c-1.6-0.3-3-0.4-4.1-0.4
	c-1.2,0-2.6,0.1-4.1,0.4c-0.5,0.1-1,0.5-1.1,1l-6.3,20.6L55,148.2l-16.8-11.8l-3.3-26.8c0.7-0.4,1.5-0.8,2.2-1.2
	c1-0.2,2.2-0.5,3.5-0.7l3.1,25.3c0,0.4,0.3,0.7,0.6,1l11.6,8.1c0.2,0.2,0.5,0.2,0.8,0.2c0.1,0,0.2,0,0.3,0l34.9-7.8
	c0.1,0,0.2-0.1,0.3-0.1c0.3-0.2,0.6-0.5,0.7-0.8l6.3-20.7c1.7-0.4,6-1.4,9.8-1.4c3.8,0,8.1,1,9.8,1.4l6.3,20.7
	c0.2,0.5,0.6,0.9,1.2,1l34.9,4c0.3,0,0.7-0.1,1-0.2l11.6-8.1c0.3-0.2,0.5-0.6,0.6-1l3.1-21.6C179.5,108.1,181.4,108.5,183,108.9"/>
<path fill="#656C67" d="M187.3,93.9l-3,11.4c-6.1-1.4-19.6-4-38-5.8c6-2.6,12.1-5.8,17.7-9.8C174.9,91.2,182.9,92.9,187.3,93.9"/>
<path fill="#E5CAA3" d="M64.4,129.5c2.4-1.3,5.1-1.1,9.3-1.1c0.5,0,0.9,0,1.4,0c0.4,0,0.8,0,1.3,0c4.3,0,7.9,0.4,7.9-6.4
	c-0.1-6.8-3.1-12.3-7.4-12.3c-4.3,0-8.5,5.6-8.3,12.4c0.1,1.8,0.3,3,0.7,4C65.5,127,64.4,129.3,64.4,129.5 M116.4,101.5
	c-1.7,1.4-3.4,2.6-5.3,3.7L105,109c-3.9,0.5-7.2,1.4-7.4,1.5c-0.1,0-0.2,0.1-0.3,0.1c-0.3,0.2-0.5,0.5-0.6,0.8L90.4,132l-33.5,7.4
	l-10.5-7.4l-3.1-24.8c6-1.1,14-2.4,23.6-3.4c-1,1.2-2,2.5-3,3.9l-5.7,8.2l8.3-5.6c0.1-0.1,5.4-3.6,14.1-7.8
	c8.7-0.7,18.2-1.1,28.4-1.1C111.6,101.4,114,101.5,116.4,101.5z"/>
<path fill="#E5CAA3" d="M153.1,126.7c0-0.2-1-2.9-5-2.4c0.5-1,0.7-2.4,0.5-4.2c-0.5-6.8-4.5-12.2-8.8-12c-4.3,0.2-7.1,5.8-6.9,12.6
	c0.2,6.8,3.9,6.7,8.2,6.6C147,127.1,150.2,125.3,153.1,126.7 M174.4,107.2l-3,21.1l-10.6,7.4l-33.4-3.8l-6.2-20.5
	c-0.1-0.5-0.5-0.8-1-0.9c-0.2-0.1-4.3-1.2-8.7-1.6l0.8-0.1c0.7-0.1,12.2-1.5,26-6.2C153.5,103.7,165.9,105.6,174.4,107.2z"/>
<path fill="#C7B39A" d="M64.4,129.5c2.4-1.3,5.1-1.1,9.3-1.1c0.5,0,0.9,0,1.4,0c0.4,0,0.8,0,1.3,0c4.3,0,7.9,0.4,7.9-6.4
	c-0.1-6.8-3.1-12.3-7.4-12.3c-4.3,0-8.5,5.6-8.3,12.4c0.1,1.8,0.3,3,0.7,4C65.5,127,64.4,129.3,64.4,129.5 M116.4,101.5
	c-1.7,1.4-3.4,2.6-5.3,3.7L105,109c-3.9,0.5-7.2,1.4-7.4,1.5c-0.1,0-0.2,0.1-0.3,0.1c-0.3,0.2-0.5,0.5-0.6,0.8L90.4,132l-33.5,7.4
	l-10.5-7.4l-3.1-24.8c6-1.1,14-2.4,23.6-3.4c-1,1.2-2,2.5-3,3.9l-5.7,8.2l8.3-5.6c0.1-0.1,5.4-3.6,14.1-7.8
	c8.7-0.7,18.2-1.1,28.4-1.1C111.6,101.4,114,101.5,116.4,101.5z"/>
<path fill="#C7B39A" d="M153.1,126.7c0-0.2-1-2.9-5-2.4c0.5-1,0.7-2.4,0.5-4.2c-0.5-6.8-4.5-12.2-8.8-12c-4.3,0.2-7.1,5.8-6.9,12.6
	c0.2,6.8,3.9,6.7,8.2,6.6C147,127.1,150.2,125.3,153.1,126.7 M174.4,107.2l-3,21.1l-10.6,7.4l-33.4-3.8l-6.2-20.5
	c-0.1-0.5-0.5-0.8-1-0.9c-0.2-0.1-4.3-1.2-8.7-1.6l0.8-0.1c0.7-0.1,12.2-1.5,26-6.2C153.5,103.7,165.9,105.6,174.4,107.2z"/>
<path fill="#E6CCAD" d="M189,116.4c0.5,0.4,0.9,1.5,0.5,6.6c-0.6,6.2-3.2,17.2-4.8,19c-1.8,0.3-5.6-0.1-7.8-0.6
	c0.4-1.6,0.5-2.3,0.8-3.9l4-2.8c0.3-0.2,0.5-0.6,0.6-0.9l2.8-19.6C186.7,115,188.5,116,189,116.4"/>
<path fill="#E6CCAD" d="M41.3,142.1c0.2,0.7,0.4,1.4,0.6,2.1c-2.2,0.6-6.5,1.2-8.5,0.9c-1.6-1.7-4.7-13.1-5.4-19.1
	c-0.5-4.9-0.2-6,0.3-6.4c0.6-0.5,2.8-1.7,4.6-2.7l2.5,20.6c0,0.4,0.3,0.7,0.6,1L41.3,142.1"/>
<path fill="#E6CCAD" d="M122.3,142.4l-0.2,1.3c0,0-4.6,4.3-12.1,5.2c-7.4,1-13.3-3.6-13.3-3.6c0.2,0.8,0.6,2.6,2.3,4.1
	c-2-0.2-4.1-0.4-6.4-0.4c-0.8,0-1.6,0-2.4,0.1c-4.6,0.2-11,7.2-15.5,14.1c-2.2,0.7-9.2,2.9-17.2,5.3c-7.5-10.4-11.2-21-11.6-22.1
	l0,0c-0.2-0.4-0.3-0.8-0.4-1.3l1.9,1.3v0l4.8,3.3l1.6,1.1c0.2,0.2,0.5,0.3,0.8,0.3c0.1,0,0.2,0,0.3,0l43.8-9.7c0.5-0.1,0.9-0.5,1-1
	l6.2-20.6c1.1-0.1,2-0.2,2.8-0.2c0.8,0,1.8,0.1,2.8,0.2l6.4,21.2c0.2,0.5,0.6,0.9,1.2,1L122.3,142.4"/>
<path fill="#E6CCAD" d="M172.3,141.2l1.4-1c-0.2,1-0.5,2-0.8,2.9c-2,6.3-4.3,11.9-6.9,16.8c-0.6,0-1.2,0.1-1.8,0.1
	c-2,0-4-0.2-6.3-0.4c-3.9-0.4-10.1-1.1-12-1.3c-1.7-1.3-7.4-5.9-12.2-9.7c-0.2-0.2-0.3-0.3-0.5-0.4c-0.8-0.7-1.8-1.5-3.7-1.5
	c-1.8,0-4.3,0.6-10.6,2.5c3.2-2.4,3.3-5.5,3.3-5.5l0.2-1.3l41.1,4.7c0.3,0,0.7,0,1-0.2l4.1-2.9L172.3,141.2"/>
<path fill="#EBD599" d="M142.1,54.8c0.1,3.7,0,10.3-1.7,16.5c-0.1,0.2-0.1,0.5,0,0.7c-2.2-0.2-4.3-0.4-6.5-0.6
	c2.4-5.1,3-10.5,3.1-12.4C138.9,57.6,140.7,56,142.1,54.8"/>
<path fill="#EBD599" d="M80.1,58.9c0.1,1.9,0.6,7.3,3.1,12.4c-2.2,0.2-4.3,0.4-6.5,0.6c0.1-0.2,0.1-0.5,0-0.7
	C75,65.1,74.9,58.4,75,54.8C76.4,56,78.2,57.6,80.1,58.9"/>
<path fill="#2D3136" d="M153.1,126.7c-2.9-1.4-6.1,0.4-11.9,0.5c-4.3,0.2-8,0.2-8.2-6.6c-0.2-6.8,2.5-12.4,6.9-12.6
	c4.3-0.2,8.3,5.2,8.8,12c0.1,1.9-0.1,3.2-0.5,4.2C152.1,123.8,153,126.5,153.1,126.7 M139.5,116.7c1.2,0,2.2-1,2.2-2.3
	c0-1.2-1-2.2-2.3-2.2c-1.2,0-2.2,1-2.2,2.3C137.3,115.8,138.3,116.8,139.5,116.7z"/>
<path fill="#ECF6FA" d="M141.7,114.5c0,1.2-1,2.2-2.2,2.3c-1.2,0-2.2-1-2.3-2.2c0-1.2,0.9-2.2,2.2-2.3
	C140.6,112.3,141.6,113.3,141.7,114.5"/>
<path fill="#2D3136" d="M84.2,121.9c0.1,6.8-3.5,6.4-7.9,6.4c-0.4,0-0.9,0-1.3,0c-0.5,0-1,0-1.4,0c-4.2,0-6.9-0.2-9.3,1.1
	c0.1-0.1,1.1-2.5,4.9-3.4c-0.4-0.9-0.7-2.2-0.7-4c-0.3-6.8,3.9-12.4,8.3-12.4C81.1,109.6,84.1,115.1,84.2,121.9 M77.5,118.4
	c1.2,0,2.2-1.1,2.1-2.3c0-1.2-1-2.2-2.3-2.2c-1.2,0-2.2,1.1-2.2,2.3C75.2,117.5,76.3,118.4,77.5,118.4z"/>
<path fill="#ECF6FA" d="M79.6,116.1c0,1.2-0.9,2.2-2.1,2.3c-1.2,0-2.2-0.9-2.3-2.2c0-1.2,0.9-2.2,2.2-2.3
	C78.6,113.9,79.6,114.9,79.6,116.1"/>
<path fill="#EDDA9D" d="M49.9,76.5l-0.5-1l0-2.5l1.3-14.8l22.7-5.5l1.4,19.1c-1.1-1.5-2.8-4.9-3.8-9.5c-0.5-2.5-2.3-3.2-4.3-3.2
	c-1.8,0-3.7,0.5-5.3,0.9c-3.3,0.8-7.6,1.9-8.3,3.6c-1.4,3.4-2,12.1-2,12.1L49.9,76.5"/>
<path fill="#EDDA9D" d="M167.4,76.5l-1.2-0.7c0,0-0.7-8.8-2-12.1c-0.7-1.7-5-2.8-8.3-3.6c-1.5-0.4-3.5-0.9-5.3-0.9
	c-2,0-3.8,0.7-4.3,3.2c-1,4.6-2.7,8-3.8,9.5l1.4-19.1l22.7,5.5l1.1,12.6l0,5.1L167.4,76.5"/>
<path fill="#EDDB9E" d="M131.8,73L85.9,73l-2.4-5.3l-1.7-9.2l-3.7-3L78,34.1l5.3-15.6c0,0,0.9,45.8,11.6,45.8s12.9,0,12.9,0h2.1
	c0,0,2.1,0,12.9,0s11.3-45.9,11.3-45.9l7,25.7L136,58.7l-0.3,4.1l-1.8,6.5L131.8,73"/>
<path fill="#EDDB9E" d="M175.8,80l-8.2-2.5l0-1.6l0.4-0.8l-0.4-4.3l0.1-9.6C167.8,61.3,170,77.1,175.8,80 M175.8,80
	C175.8,80,175.8,80,175.8,80C175.8,80,175.8,80,175.8,80 M175.8,80C175.8,80,175.8,80,175.8,80L175.8,80 M178.4,81.2
	c0,0-0.6-0.3-2.6-1.3C176,80,178.4,81.2,178.4,81.2"/>
<polyline fill="#ECD79A" points="167.7,75.9 167.7,70.9 168.1,75.1 167.7,75.9 "/>
<path fill="#EDDB9E" d="M41.3,80c5.8-2.9,8-18.7,8-18.7L49.4,73l-0.2,2.1l0.2,0.4l0,2L41.3,80 M38.7,81.2l2.6-1.3
	C39.3,80.9,38.7,81.2,38.7,81.2"/>
<polyline fill="#ECD79A" points="49.4,75.5 49.2,75.1 49.4,73 49.4,75.5 "/>
<path fill="#2D3136" d="M169.4,77.4c2.8,0.9,5.6,1.9,8.1,3.4c-1.4-0.5-2.8-0.9-4.2-1.3c-1.4-0.4-2.8-0.7-4.2-0.9
	c-2.8-0.5-5.7-1-8.6-1.3c-2.9-0.4-5.7-0.7-8.6-0.9c-2.9-0.2-5.8-0.5-8.6-0.7c-11.5-0.7-23.1-0.9-34.7-0.9c-11.6,0-23.2,0.2-34.7,0.9
	c-2.9,0.2-5.8,0.4-8.6,0.7c-2.9,0.2-5.8,0.6-8.6,0.9c-2.9,0.3-5.7,0.8-8.6,1.3c-1.4,0.3-2.8,0.6-4.2,0.9c-1.4,0.3-2.8,0.7-4.2,1.3
	c2.5-1.5,5.3-2.4,8.1-3.4c0.2-0.1,0.5-0.1,0.7-0.2l0-0.2c0-0.3-1.1-7.9,0.7-18.8c0.1-0.5,0.5-0.9,1-1.1l2.9-0.8
	c0.6-22.8,10-33.5,10.3-33.9C55,35.9,55,52,55.2,55.7l18.3-5.2l0,0l0.2,0l0.1,0c0.1,0,0.2,0,0.3,0l0.1,0l0.2,0.1l0.1,0l0.2,0.1l0,0
	l0,0l0.1,0c0,0,0.5,0.5,1.3,1.2c-0.2-6,0.1-23.3,8.3-37.6c-0.2,0.5-6.7,19.6-4.5,41c0.7,0.6,1.5,1.2,2.2,1.7
	c0.4,0.2,0.6,0.7,0.6,1.1c0,0.1,0.2,6.9,3.2,12.7c0,0.1,0.1,0.2,0.1,0.3c7.5-0.5,15-0.7,22.5-0.7c7.5,0,15,0.2,22.5,0.7
	c0-0.1,0.1-0.2,0.1-0.3c3-5.8,3.2-12.6,3.2-12.7c0-0.4,0.2-0.9,0.6-1.1c0.7-0.5,1.5-1.1,2.2-1.7c2.3-21.4-4.3-40.5-4.4-41
	c8.2,14.3,8.5,31.6,8.3,37.6c0.8-0.7,1.3-1.2,1.3-1.2l0.1,0l0,0l0,0l0.2-0.1l0.1,0l0.2-0.1l0,0c0.1,0,0.2,0,0.3,0l0.1,0l0.2,0l0,0
	l18.3,5.2c0.1-3.7,0.2-19.8-8.2-33.3c0.3,0.3,9.7,11.1,10.3,33.9l2.9,0.8c0.5,0.1,0.9,0.6,1,1.1c1.8,10.9,0.8,18.5,0.7,18.8l0,0.2
	C168.9,77.3,169.1,77.4,169.4,77.4 M166,76.5c0.1-1.2,0.8-7.9-0.6-16.9l-20.7-5.9c0.2,3.5,0.3,11.1-1.7,18.3l-0.1,0.3
	c0.2,0,0.4,0,0.6,0.1c5.8,0.7,11.6,1.6,17.3,2.9C162.6,75.6,164.3,76,166,76.5z M140.4,71.3c1.7-6.2,1.8-12.8,1.7-16.5
	c-1.4,1.2-3.2,2.8-5.1,4.2c-0.1,1.9-0.6,7.3-3.1,12.4c2.2,0.2,4.3,0.4,6.5,0.6C140.4,71.7,140.4,71.5,140.4,71.3z M83.2,71.4
	c-2.4-5.1-3-10.5-3.1-12.4c-1.9-1.3-3.7-2.9-5.1-4.2c-0.1,3.7,0,10.3,1.7,16.5c0.1,0.2,0.1,0.5,0,0.7C78.8,71.7,81,71.5,83.2,71.4z
	 M74.2,72.2L74.1,72c-2-7.2-1.9-14.8-1.7-18.3l-20.7,5.9c-1.4,9.1-0.7,15.7-0.6,16.9c1.7-0.5,3.4-0.9,5.2-1.3
	c2.9-0.6,5.7-1.2,8.6-1.7c2.9-0.5,5.8-0.8,8.7-1.2C73.8,72.3,74,72.3,74.2,72.2z"/>
<path fill="#2D3136" d="M87.5,19.1h42.8v17.2h-12.2v-5h-2.7v23.2h4.1v13H98.3v-13h4.1V31.3h-2.7v5H87.5V19.1 M126.7,32.6v-9.9H91.2
	v9.9H96v-5h10v30.5h-4.1v5.7h14v-5.7h-4.1V27.6h10v5H126.7z"/>
<polyline fill="#CB3349" points="126.7,22.8 126.7,32.6 121.8,32.6 121.8,27.6 111.8,27.6 111.8,58.1 115.9,58.1 115.9,63.8 
	101.9,63.8 101.9,58.1 106.1,58.1 106.1,27.6 96,27.6 96,32.6 91.2,32.6 91.2,22.8 126.7,22.8 "/>
<path fill="#656C67" d="M30.9,93.9c1.8-0.4,4.2-0.9,7.1-1.5c-1.8,1.2-3.9,2.8-6.3,4.6L30.9,93.9"/>
<path fill="#C7B39A" d="M95.9,140.9c0,0,0.5,3.2-4,4.6c-4.5,1.4-32.7,9.8-36,9.3c-3.2-0.5-11.4-5.9-11.4-5.9l-2-7.1l12.1,7.6
	L95.9,140.9"/>
<path fill="#C7B39A" d="M121.2,140.3c0,0-0.4,3.2,4.2,4.4c4.5,1.2,33.1,8.4,36.3,7.8s11.1-6.4,11.1-6.4l1.7-7.1l-11.1,6.6
	L121.2,140.3"/>
<path fill="#C7B39A" d="M28.6,135.1c0,0,3.9,7.8,10.2,5.1l4.5,1.7l-0.5,3.3l-9.5,1.2l-2.6-1.5L28.6,135.1"/>
<g>
	<defs>
		<rect id="SVGID_1_" width="641.3" height="200"/>
	</defs>
	<clipPath id="SVGID_2_">
		<use xlink:href="#SVGID_1_"  overflow="visible"/>
	</clipPath>
	<path clip-path="url(#SVGID_2_)" fill="#C7B39A" d="M189.1,132.9c0,0-6.4,8.2-12.7,5.5l-2,1.3l0.5,3.3l9.5,1.2l2.6-1.5L189.1,132.9
		"/>
	<path clip-path="url(#SVGID_2_)" fill="#C7B39A" d="M90,194.5c0,0,23.2,11.7,49.5-4.2l-8.4-0.6c0,0-18.4,7.3-33,3.3L90,194.5"/>
	<path clip-path="url(#SVGID_2_)" fill="#2D3136" d="M113.5,172.9l1.6,1.9c0,0,3.6,4.3,8,8.6c2.9,2.9,6.4,4.3,10.4,4.3
		c1.4,0,2.8-0.2,4.3-0.5c1.4-0.3,2.8-0.7,4.3-1c5.4-1.3,11.6-2.8,14.6-3.6c0.6-0.2,1.2-0.3,1.9-0.5c4-0.9,9.4-2.2,12.3-8
		c2.2-4.3,5.1-10,7.3-14.1c-1.9,0.9-3.8,1.8-5.2,2.5c-2.2,1.1-5,1.7-8.6,1.7c-2.2,0-4.3-0.2-6.7-0.4c-4.7-0.4-12.7-1.4-12.8-1.4
		l-0.6-0.1l-0.5-0.4c-0.1-0.1-7.1-5.6-12.7-10.1c-0.2-0.2-0.4-0.4-0.6-0.5c-0.6-0.5-0.6-0.5-0.9-0.5c-1.8,0-7.1,1.6-18.6,5.2
		l-0.7,0.2l-0.7-0.3c-0.1,0-7.6-2.8-16.7-2.8c-0.7,0-1.5,0-2.2,0.1c-0.9,0-6,2.5-12.5,12.8l-0.4,0.7l-0.7,0.2
		c-0.1,0-11.3,3.7-23.2,7.1l-0.8,0.2l-0.7-0.3c-0.1,0-4.7-2.2-9.2-4.2c2.4,3.6,5.5,8,8.2,11.5c4.7,6.1,10.7,11.8,22.2,11.8
		c1.4,0,3-0.1,4.5-0.3c11.7-1.3,14.7-1.9,16.3-2.1c0.5-0.1,1-0.2,1.5-0.2c0.1,0,9.6-1.2,12.3-7.3c2.8-6.2,3.3-7.7,3.3-7.7l1-2.6
		c0,0,0.1-0.7,0.3-0.9l0,0l0,0C113.1,172.2,113.5,172.9,113.5,172.9 M40.8,56.2c-2.5,1-5.1,2.1-7.5,3.2c-2.5,1.1-4.9,2.3-7.2,3.7
		c-2.1,1.2-4.2,2.6-6,4.1c-0.1,0.5-0.2,1-0.2,1.4c-0.1,0.7-0.2,1.3-0.2,2c-0.1,1.4-0.2,2.7-0.2,4.1c0,2.7,0.2,5.5,0.5,8.2
		c0.4,2.7,0.9,5.4,1.6,8c0.4,1.3,0.8,2.6,1.3,3.8c0.2,0.6,0.5,1.2,0.8,1.8c0.1,0.3,0.3,0.6,0.4,0.9l0.2,0.3c0.2,0.1,0.4,0.2,0.6,0.3
		l1.2,0.6c0.7,0.3,1.6,0.8,2.4,1.1l0.1-0.1l-2.2-8.6c0.5-0.1,4.8-1.2,12.1-2.6c-0.6-0.1-1.2-0.2-1.8-0.4c-1.7-0.4-3.3-0.9-4.9-1.6
		c-0.8-0.3-1.6-0.7-2.3-1.1c-0.7-0.4-1.5-0.9-2.1-1.6c8.1,2.6,24.8,1.4,39.7-0.1c13.6-1.4,27.2-2.3,41-2.3c13.7,0,27.4,0.9,41,2.3
		c14.9,1.5,31.6,2.7,39.7,0.1c-0.6,0.6-1.3,1.1-2.1,1.6c-0.7,0.4-1.5,0.8-2.3,1.1c-1.6,0.6-3.3,1.2-4.9,1.6
		c-0.2,0.1-0.5,0.1-0.7,0.2c8.1,1.5,12.8,2.7,13.3,2.9l-2.2,8.2c0.4-0.2,0.9-0.4,1.3-0.6l1.2-0.6c0.2-0.1,0.4-0.2,0.6-0.3l0.2-0.3
		c0.1-0.3,0.3-0.6,0.4-0.9c0.3-0.6,0.5-1.2,0.8-1.8c0.5-1.2,0.9-2.5,1.2-3.8c0.7-2.6,1.2-5.3,1.6-8c0.4-2.7,0.5-5.4,0.5-8.2
		c0-1.4-0.1-2.7-0.2-4.1c-0.1-0.7-0.1-1.4-0.2-2c-0.1-0.5-0.1-1-0.2-1.4c-1.8-1.5-3.9-2.9-6-4.1c-2.3-1.4-4.7-2.6-7.2-3.7
		c-2.5-1.2-5-2.2-7.5-3.2c-1.3-0.5-2.5-1-3.8-1.5c-1.3-0.5-2.6-1-3.9-1.4c2.7,0.4,5.4,1.1,8.1,1.8c1.7,0.4,3.5,1,5.2,1.5
		c-12.2-31.9-41.4-52.7-73.3-52.7c-31.9,0-61.1,20.8-73.3,52.7c1.7-0.5,3.4-1,5.2-1.5c2.7-0.7,5.4-1.3,8.1-1.8
		c-1.3,0.5-2.6,0.9-3.9,1.4C43.4,55.2,42.1,55.7,40.8,56.2z M201.6,74.6c0.1,2.9,0.1,5.9-0.3,8.8c-0.3,2.9-0.9,5.8-1.6,8.7
		c-0.4,1.4-0.9,2.8-1.4,4.2c-0.3,0.7-0.6,1.4-0.9,2.1c-0.2,0.3-0.3,0.7-0.5,1l-0.3,0.5c-0.1,0.2-0.2,0.3-0.4,0.6l-0.3,0.5l-0.5,0.2
		c-0.5,0.3-0.9,0.4-1.4,0.7l-1.3,0.6c-0.9,0.4-1.8,0.7-2.6,1.1c-0.6,0.2-1.2,0.5-1.7,0.7l-1.5,5.5c0,0-0.5-0.1-1.3-0.3l-0.1,0.6
		c1.6,0.8,4.8,2.5,5.8,3.4c2.2,1.8,2.3,4.6,1.8,9.9c-0.2,2.7-1.1,8-2.4,12.9c-2.2,8.4-3.3,9.3-4.8,9.7c-0.8,0.2-1.9,0.4-3,0.4
		c-2.3,0-5.4,0.1-7.5-0.4c-0.5,1.9-2.1,6.9-5.1,13.1c0.2-0.1,0.3-0.1,0.4-0.2c3.7-2,11-5.1,11.3-5.2l5.7-2.5l-2.9,5.5
		c-0.1,0.1-6.3,11.9-10.1,19.5c-3.8,7.6-10.9,9.3-15.2,10.2c-0.6,0.2-1.3,0.3-1.7,0.4c-3.1,0.9-9.3,2.3-14.7,3.7l-0.2,0
		c-3.4,2.1-7,3.9-11,5.5c-14.7,5.6-30.2,5.2-44.2,0.1c-2.3,0.3-5.3,0.7-9.3,1.1c-1.7,0.2-3.4,0.3-5,0.3c-13.4,0-20.5-6.8-25.6-13.4
		c-5.5-7.1-12.3-17.7-12.6-18.1l-3.9-6.1l6.6,3c3.2,1.4,12.6,5.8,15.3,7.1c0.2-0.1,0.4-0.1,0.6-0.2c-4.5-6.4-8.2-13.7-10.8-21.8
		c-2.2,0.7-5.6,1.2-8.3,1.2c-1,0-1.8-0.1-2.5-0.2c-1.5-0.3-3.2-1.8-5.5-9.9c-1.3-4.7-2.3-9.8-2.6-12.5c-0.6-5.2-0.5-7.9,1.7-9.7
		c1.3-1.1,5.7-3.4,6.6-3.8l-0.2-1.6c-13.9,8.1-22.2,15.3-22.3,15.5L0,135.4l7.1-11.1c5.6-8.8,12-16,18-21.5
		c-0.2-0.1-0.5-0.2-0.7-0.3l-1.3-0.6c-0.4-0.2-0.9-0.4-1.4-0.7l-0.5-0.2l-0.3-0.5c-0.2-0.2-0.2-0.4-0.4-0.6l-0.3-0.5
		c-0.2-0.4-0.4-0.7-0.5-1c-0.3-0.7-0.6-1.4-0.9-2.1c-0.5-1.4-1-2.8-1.4-4.2c-0.8-2.9-1.3-5.8-1.6-8.7c-0.3-2.9-0.4-5.9-0.3-8.8
		c0.1-1.5,0.2-2.9,0.4-4.4c0.1-0.7,0.2-1.5,0.4-2.2c0.2-0.7,0.3-1.4,0.5-2.2l0.2-0.6l0.4-0.3c2.3-1.8,4.8-3.2,7.3-4.4
		c2.1-1,4.2-1.8,6.4-2.6c6-16.6,16.3-31.4,29.8-41.6C74.9,5.6,91.4,0,108.6,0c17.1,0,33.6,5.6,47.6,16.2
		c13.5,10.3,23.8,25,29.8,41.6c2.1,0.8,4.3,1.7,6.4,2.6c2.5,1.2,5,2.6,7.3,4.4l0.4,0.3l0.2,0.6c0.2,0.8,0.4,1.5,0.5,2.2
		c0.1,0.7,0.3,1.5,0.4,2.2C201.4,71.7,201.5,73.2,201.6,74.6z M189.5,123.1c0.5-5.1,0.1-6.2-0.5-6.6c-0.5-0.4-2.3-1.4-4-2.3
		l-2.8,19.6c-0.1,0.4-0.3,0.7-0.6,0.9l-4,2.8c-0.3,1.6-0.4,2.4-0.8,3.9c2.3,0.5,6,0.9,7.8,0.6C186.3,140.3,188.9,129.3,189.5,123.1z
		 M184.3,105.3l3-11.4c-4.4-1-12.4-2.6-23.3-4.2c-5.6,4-11.7,7.2-17.7,9.8C164.7,101.3,178.1,103.9,184.3,105.3z M179.6,132.7
		l3.4-23.9c-1.5-0.3-3.5-0.7-5.8-1.2l-3.1,21.6c-0.1,0.4-0.3,0.7-0.6,1l-11.6,8.1c-0.3,0.2-0.6,0.3-1,0.2l-34.9-4
		c-0.6-0.1-1-0.4-1.2-1l-6.3-20.7c-1.7-0.4-6-1.4-9.8-1.4c-3.8,0-8.1,1-9.8,1.4l-6.3,20.7c-0.1,0.4-0.4,0.7-0.7,0.8
		c-0.1,0.1-0.2,0.1-0.3,0.1L57,142.3c-0.1,0-0.2,0-0.3,0c-0.3,0-0.6-0.1-0.8-0.3L44.3,134c-0.3-0.2-0.5-0.6-0.6-1l-3.1-25.3
		c-1.3,0.3-2.5,0.5-3.5,0.7c-0.7,0.4-1.5,0.8-2.2,1.2l3.3,26.8L55,148.2l42.4-9.4l6.3-20.6c0.2-0.5,0.6-0.9,1.1-1
		c1.6-0.3,3-0.4,4.1-0.4c1.2,0,2.6,0.1,4.1,0.4c0.5,0.1,1,0.5,1.1,1l6.4,21.1l42.6,4.8L179.6,132.7z M171.4,128.3l3-21.1
		c-8.5-1.5-20.9-3.4-36.2-4.6c-13.8,4.7-25.3,6.2-26,6.2l-0.8,0.1c4.4,0.4,8.5,1.6,8.7,1.6c0.5,0.1,0.8,0.5,1,0.9l6.2,20.5l33.4,3.8
		L171.4,128.3z M173.7,140.2l-1.4,1l-3.8,2.7l-4.1,2.9c-0.3,0.2-0.6,0.3-1,0.2l-41.1-4.7l-3-0.3c-0.6-0.1-1-0.4-1.2-1l-6.4-21.2
		c-1.1-0.1-2-0.2-2.8-0.2c-0.8,0-1.8,0.1-2.8,0.2l-6.2,20.6c-0.1,0.5-0.5,0.8-1,1L55,151.1c-0.1,0-0.2,0-0.3,0
		c-0.3,0-0.6-0.1-0.8-0.3l-1.6-1.1l-4.8-3.3v0l-1.9-1.3c0.1,0.4,0.3,0.9,0.4,1.3l0,0c0.4,1.1,4.1,11.7,11.6,22.1
		c8-2.4,15-4.6,17.2-5.3c4.5-7,11-13.9,15.5-14.1c0.8,0,1.6-0.1,2.4-0.1c2.2,0,4.4,0.2,6.4,0.4c-1.7-1.5-2-3.3-2.3-4.1
		c0,0,5.8,4.6,13.3,3.6c7.4-1,12.1-5.2,12.1-5.2s0,3.1-3.3,5.5c6.2-1.9,8.8-2.5,10.6-2.5c1.9,0,2.9,0.8,3.7,1.5
		c0.2,0.1,0.3,0.3,0.5,0.4c4.8,3.8,10.6,8.4,12.2,9.7c2,0.2,8.1,0.9,12,1.3c2.2,0.2,4.3,0.4,6.3,0.4c0.6,0,1.2,0,1.8-0.1
		c2.6-4.9,4.9-10.5,6.9-16.8C173.3,142.2,173.5,141.2,173.7,140.2z M158.6,88.2L158.6,88.2c-3.3-0.3-6.6-0.5-9.9-0.7
		c-4.6-0.3-9.2-0.5-13.8-0.7c-0.3,0.4-0.8,1.2-1.6,2.2c-2.5,3.4-7.5,9.6-13.8,14.8c9-1.6,24.6-5.6,38.1-15
		C157.9,88.7,158.2,88.4,158.6,88.2z M128.5,89.1c0.4-0.5,0.7-0.9,1.1-1.4c-3.3,0.3-6.6,0.8-9.8,1.4c-10.9,2-21,5.4-29.3,8.9
		c5.9-0.3,12.2-0.5,18.7-0.5c3.9,0,7.8,0.1,11.5,0.2C123.8,94.8,126.5,91.6,128.5,89.1z M132.1,192.1c-4.5-0.3-8.7-2.2-12-5.5
		c-0.2-0.2-0.3-0.3-0.5-0.5c-1.6,0.3-3.2,0.6-4.9,0.7c-0.7,0-1.4,0.1-2.1,0.1l-1.1,0l-0.4,0c-4.4,6.6-14.3,7.9-14.7,7.9
		c-0.4,0-0.7,0.1-1.2,0.2c5.5,1.5,11.1,2.2,16.6,1.8C117.3,196.4,124.4,195.2,132.1,192.1z M114.5,184.5c1.1-0.1,2.1-0.2,3.2-0.4
		c-1.4-1.4-2.6-2.8-3.6-3.9c-0.5,1.1-1.1,2.5-1.9,4.4h0.2C113.1,184.6,113.8,184.6,114.5,184.5z M111.2,105.3
		c1.8-1.1,3.6-2.4,5.3-3.7c-2.4,0-4.8-0.1-7.3-0.1c-10.2,0-19.8,0.4-28.4,1.1c-8.7,4.2-14,7.7-14.1,7.8l-8.3,5.6l5.7-8.2
		c0.9-1.4,1.9-2.7,3-3.9c-9.6,1.1-17.6,2.3-23.6,3.5l3.1,24.8l10.5,7.4l33.5-7.4l6.3-20.6c0.1-0.3,0.3-0.6,0.6-0.8
		c0.1-0.1,0.2-0.1,0.3-0.1c0.2-0.1,3.5-1,7.4-1.5L111.2,105.3z M115,86.3c-2.3,0-4.7-0.1-7-0.1h0c-3.4,0-6.8,0-10.3,0.1l-6.3,3
		l-0.1,0c-0.9,0.5-9.2,4.7-17.1,12.1c7-3.7,17.3-8.5,29.4-12.2C107.3,88.2,111.1,87.2,115,86.3z M70.8,99.6c3.3-3.3,6.7-5.9,9.6-8
		c-11.5,2.7-22.1,6.6-31.4,10.9C55.1,101.4,62.4,100.4,70.8,99.6z M73,89.5c3.9-1.1,7.8-2,11.9-2.8c-5.8,0.2-11.7,0.5-17.5,0.8
		c-3.4,0.2-6.8,0.4-10.1,0.7c-1.7,0.1-3.4,0.3-5,0.4c-0.5,0-0.9,0.1-1.4,0.2c-4.4,2.6-21.3,13.2-32.9,27.1
		C29.1,108.1,48.8,96.3,73,89.5z M41.9,144.2c-0.2-0.7-0.4-1.4-0.6-2.1l-5.2-3.6c-0.3-0.2-0.5-0.6-0.6-1l-2.5-20.6
		c-1.9,1-4,2.2-4.6,2.7c-0.5,0.4-0.9,1.5-0.3,6.4c0.7,6.1,3.7,17.5,5.4,19.1C35.4,145.4,39.7,144.8,41.9,144.2z M38.1,92.4
		c-2.9,0.6-5.3,1.1-7.1,1.5l0.8,3.2C34.1,95.2,36.2,93.6,38.1,92.4z"/>
</g>
<polyline fill="#2D3136" points="257.4,74.9 233.9,74.9 233.9,62.8 295.1,62.8 295.1,74.9 271.8,74.9 271.8,143.9 257.4,143.9 
	257.4,74.9 "/>
<path fill="#2D3136" d="M293.8,83h11.8l1,10.8h0.5c4.3-7.9,10.8-12.3,17.3-12.3c3.1,0,5.1,0.4,7,1.2l-2.5,12.4c-2.1-0.6-3.7-1-6.3-1
	c-4.8,0-10.7,3.4-14.4,12.5v37.2h-14.3V83"/>
<path fill="#2D3136" d="M370.3,105c-0.1-6.5-2.9-11.9-11-11.9c-6.1,0-11.8,2.7-17.1,6l-5.2-9.6c6.7-4.2,15.3-7.9,24.9-7.9
	c15.3,0,22.7,9.3,22.7,26.3v36.1h-11.7l-1.1-6.7h-0.4c-5.5,4.6-11.7,8.2-18.9,8.2c-10.7,0-18.1-7.2-18.1-17.9
	C334.4,114.5,345.4,107.7,370.3,105 M357,134.3c5,0,8.8-2.5,13.3-6.7v-13.7c-16.5,2.1-22,6.5-22,12.5
	C348.3,131.9,351.9,134.3,357,134.3z"/>
<path fill="#2D3136" d="M388.7,83h14.5l9.7,31.7c1.6,6,3.5,12.2,5.1,18.4h0.5c1.7-6.2,3.5-12.4,5.2-18.4l9.7-31.7h13.8l-20.7,60.9
	h-16.5L388.7,83"/>
<path fill="#2D3136" d="M452.5,64.3c0-4.8,3.7-8.2,8.8-8.2c5.1,0,8.8,3.4,8.8,8.2c0,4.7-3.7,8.1-8.8,8.1
	C456.2,72.3,452.5,69,452.5,64.3 M454.1,83h14.3v60.9h-14.3V83z"/>
<path fill="#2D3136" d="M483.3,127.8c5.5,4.2,10.7,6.8,16.9,6.8c6.6,0,9.7-3.1,9.7-7.3c0-5.1-6.6-7.3-13-9.8
	c-8.1-3-17.1-7.6-17.1-17.8c0-10.7,8.6-18.2,22.2-18.2c8.4,0,15.3,3.5,20.2,7.3l-6.6,8.7c-4.2-3.1-8.6-5.2-13.4-5.2
	c-6.1,0-8.9,2.9-8.9,6.7c0,4.7,6.1,6.7,12.7,9.1c8.3,3.1,17.5,7.1,17.5,18.5c0,10.4-8.3,18.9-23.7,18.9c-8.3,0-17.1-3.6-23.1-8.4
	L483.3,127.8"/>
<path fill="#2D3136" d="M593.4,61.3c9.9,0,18,4.8,23.1,10.3l-7.9,8.9c-4.2-4.1-8.8-6.7-15-6.7c-13.3,0-22.8,11.2-22.8,29.4
	c0,18.5,8.8,29.7,22.3,29.7c7.2,0,12.5-3,17.1-8.1l7.9,8.8c-6.6,7.6-15,11.8-25.3,11.8c-20.6,0-36.9-14.9-36.9-41.8
	C555.9,77,572.5,61.3,593.4,61.3"/>
<rect x="626.9" y="62.8" fill="#2D3136" width="14.4" height="81.2"/>
</svg>
