<?xml version="1.0" encoding="utf-8"?>
<!-- Generator: Adobe Illustrator 18.0.0, SVG Export Plug-In . SVG Version: 6.00 Build 0)  -->
<!DOCTYPE svg PUBLIC "-//W3C//DTD SVG 1.1//EN" "http://www.w3.org/Graphics/SVG/1.1/DTD/svg11.dtd">
<svg version="1.1" xmlns="http://www.w3.org/2000/svg" xmlns:xlink="http://www.w3.org/1999/xlink" x="0px" y="0px"
	 viewBox="0 0 120 120" enable-background="new 0 0 120 120" xml:space="preserve">
<g id="bg">
	<linearGradient id="SVGID_1_" gradientUnits="userSpaceOnUse" x1="60" y1="120" x2="60" y2="-1.338776e-09">
		<stop  offset="0" style="stop-color:#FFDB4C"/>
		<stop  offset="1" style="stop-color:#FFCD02"/>
	</linearGradient>
	<path fill="url(#SVGID_1_)" d="M89.8,0H30.2C13.6,0,0,13.6,0,30.2v59.7C0,106.4,13.6,120,30.2,120h59.7c16.6,0,30.2-13.6,30.2-30.2
		V30.2C120,13.6,106.4,0,89.8,0z"/>
</g>
<g id="guides">
</g>
<g id="Layer_3">
	<g>
		<path fill="#FFFFFF" d="M35.7,71.8l-2.5-5c-1-1.9-1.7-3.3-2.4-4.9h-0.1c-0.6,1.6-1.3,3-2.1,4.9l-2.3,5h-7.1L27.2,58l-7.6-13.5h7.1
			l2.4,5c0.8,1.7,1.4,3,2.1,4.6h0.1c0.7-1.7,1.2-3,1.9-4.6l2.3-5h7.1l-7.7,13.4l8.1,14H35.7z"/>
		<path fill="#FFFFFF" d="M69.4,61.3c-0.1-3.3-0.2-7.3-0.2-11.3H69c-0.9,3.5-2,7.4-3,10.6l-3.3,10.7h-4.8l-2.9-10.6
			c-0.9-3.2-1.8-7.1-2.5-10.7h-0.1c-0.2,3.7-0.3,7.9-0.5,11.3l-0.5,10.4h-5.7l1.7-27.4h8.3l2.7,9.1c0.9,3.2,1.7,6.6,2.3,9.8h0.1
			c0.8-3.2,1.7-6.8,2.6-9.8l2.9-9.1h8.1l1.5,27.4h-6.1L69.4,61.3z"/>
		<path fill="#FFFFFF" d="M80.6,44.4h6.2v22.2h10.9v5.2H80.6V44.4z"/>
	</g>
</g>
</svg>
